<svg xmlns:xlink="http://www.w3.org/1999/xlink" xmlns="http://www.w3.org/2000/svg" width="177" height="62" viewBox="0 0 177 62" fill="none">
<path d="M120.622 43.4288C114.151 49.6435 105.232 53.1466 96.3634 52.9841C87.4904 52.9056 78.791 49.1144 72.7649 42.7854C72.4078 42.415 72.4194 41.8262 72.7911 41.4696C73.154 41.1217 73.7313 41.1304 74.0896 41.4754C80.0005 47.2374 88.213 50.4179 96.3546 50.1932C104.503 50.0388 112.42 46.5453 117.994 40.7862C118.71 40.0467 119.891 40.0256 120.633 40.7396C121.375 41.4536 121.396 42.6311 120.68 43.3713C120.666 43.3859 120.651 43.3997 120.637 43.4135L120.622 43.4288Z" fill="#999999"/>
<path d="M127.253 29.4789C129.563 29.4789 131.442 31.3523 131.442 33.6551C131.442 35.9579 129.563 37.8313 127.253 37.8313C124.944 37.8313 123.065 35.9579 123.065 33.6551C123.065 31.3523 124.944 29.4789 127.253 29.4789ZM127.253 26.2511C123.152 26.2511 119.827 29.5663 119.827 33.6558C119.827 37.7454 123.152 41.0605 127.253 41.0605C131.355 41.0605 134.681 37.7454 134.681 33.6558C134.681 29.5663 131.355 26.2511 127.253 26.2511Z" fill="#999999"/>
<path d="M16.365 25.15H19.9712V35.3305L27.4508 25.15H30.8548V40.7782H27.2719V30.6202L19.7909 40.7782H16.365V25.15Z" fill="#999999"/>
<path d="M34.2339 28.7664H37.7058V33.455H42.9451V28.7664H46.4389V40.7782H42.9451V36.2905H37.7058V40.7782H34.2339V28.7664Z" fill="#999999"/>
<path d="M61.0031 37.3626C61.0031 38.4492 60.5913 39.2905 59.7709 39.8851C58.951 40.4805 57.7259 40.7782 56.0989 40.7782H49.6711V28.7664H55.831C57.3361 28.7664 58.5175 29.0379 59.3687 29.5816C60.2196 30.1245 60.6445 30.888 60.6445 31.8698C60.6445 32.4658 60.4914 32.9899 60.1869 33.444C59.8811 33.8982 59.4431 34.2519 58.8751 34.5045C60.2919 34.9812 61.0031 35.9331 61.0031 37.3626ZM52.8753 33.7002H55.5178C56.7407 33.7002 57.3531 33.2686 57.3531 32.4054C57.3531 31.5568 56.7407 31.1325 55.5178 31.1325H52.8753V33.7002ZM57.7333 37.0947C57.7333 36.6333 57.5838 36.2941 57.2851 36.0787C56.9866 35.8625 56.5164 35.7541 55.8747 35.7541H52.8753V38.4113H55.8077C57.0916 38.4121 57.7333 37.9732 57.7333 37.0947Z" fill="#999999"/>
<path d="M76.4075 28.7664H79.8793V35.9106L85.7458 28.7664H88.9497V40.7782H85.4779V33.634L79.6333 40.7782H76.4075V28.7664ZM78.4923 24.0109H80.7758C80.7903 24.532 80.9342 24.9374 81.2116 25.2285C81.4884 25.5182 81.8949 25.6638 82.4328 25.6638C82.971 25.6638 83.3842 25.5182 83.6762 25.2285C83.9673 24.9382 84.1133 24.5328 84.1133 24.0109H86.4421C86.4276 26.3181 85.0973 27.4724 82.4548 27.4724C79.8261 27.4717 78.5071 26.3181 78.4923 24.0109Z" fill="#999999"/>
<path d="M94.61 40.1639C93.5859 39.6363 92.7879 38.9026 92.212 37.9645C91.6383 37.0271 91.352 35.963 91.352 34.7723C91.352 33.5816 91.6383 32.5176 92.212 31.5801C92.7879 30.642 93.5859 29.9098 94.61 29.3807C95.6306 28.8531 96.784 28.5889 98.0687 28.5889C99.3376 28.5889 100.445 28.8531 101.393 29.3807C102.341 29.9091 103.034 30.6646 103.465 31.6464L100.755 33.0984C100.128 31.9972 99.2243 31.4455 98.047 31.4455C97.1359 31.4455 96.3811 31.7432 95.7833 32.3385C95.1852 32.9346 94.8882 33.7454 94.8882 34.7723C94.8882 35.8 95.1852 36.6108 95.7833 37.2061C96.3811 37.8015 97.1352 38.0991 98.047 38.0991C99.2405 38.0991 100.143 37.5489 100.755 36.4463L103.465 37.9201C103.033 38.8728 102.341 39.6173 101.393 40.153C100.446 40.6887 99.3376 40.9572 98.0687 40.9572C96.784 40.9572 95.6306 40.693 94.61 40.1639Z" fill="#999999"/>
<path d="M115.695 30.2963C116.558 30.765 117.229 31.4236 117.699 32.2723C118.169 33.1202 118.403 34.1027 118.403 35.2192C118.403 36.3647 118.124 37.3815 117.565 38.2665C117.004 39.1522 116.224 39.8371 115.225 40.3204C114.223 40.8036 113.089 41.046 111.821 41.046C109.715 41.046 108.063 40.3728 106.861 39.0256C105.659 37.6784 105.057 35.7024 105.057 33.0976C105.057 30.6864 105.586 28.7621 106.637 27.3261C107.688 25.8901 109.305 24.9483 111.486 24.5015L117.217 23.3639L117.687 26.3552L112.626 27.3603C111.252 27.6281 110.233 28.0743 109.569 28.6995C108.904 29.3254 108.512 30.2104 108.394 31.3567C108.915 30.7905 109.542 30.3552 110.275 30.0503C111.005 29.7461 111.805 29.5925 112.669 29.5925C113.821 29.5925 114.827 29.8268 115.695 30.2963ZM114.004 37.4739C114.547 36.8931 114.82 36.1566 114.82 35.2636C114.82 34.356 114.547 33.634 114.004 33.0976C113.457 32.5619 112.739 32.2934 111.842 32.2934C110.932 32.2934 110.201 32.5612 109.648 33.0976C109.094 33.6333 108.819 34.356 108.819 35.2636C108.819 36.1711 109.101 36.9128 109.67 37.4848C110.239 38.0583 110.96 38.3444 111.842 38.3444C112.739 38.3444 113.457 38.0547 114.004 37.4739Z" fill="#999999"/>
<path d="M141.851 36.2235H140.037V40.7789H136.543V28.7664H140.037V33.4324H141.917L145.187 28.7664H148.905L144.695 34.527L149.196 40.7782H145.076L141.851 36.2235Z" fill="#999999"/>
<path d="M152.78 40.1639C151.757 39.6363 150.96 38.9026 150.383 37.9645C149.808 37.0271 149.521 35.963 149.521 34.7723C149.521 33.5816 149.808 32.5176 150.383 31.5801C150.96 30.642 151.757 29.9098 152.78 29.3807C153.803 28.8531 154.954 28.5889 156.241 28.5889C157.51 28.5889 158.617 28.8531 159.565 29.3807C160.513 29.9091 161.204 30.6646 161.636 31.6464L158.927 33.0984C158.3 31.9972 157.397 31.4455 156.218 31.4455C155.308 31.4455 154.554 31.7432 153.956 32.3385C153.358 32.9346 153.06 33.7454 153.06 34.7723C153.06 35.8 153.358 36.6108 153.956 37.2061C154.554 37.8015 155.308 38.0991 156.218 38.0991C157.411 38.0991 158.315 37.5489 158.927 36.4463L161.635 37.9201C161.203 38.8728 160.512 39.6173 159.565 40.153C158.617 40.6887 157.509 40.9572 156.24 40.9572C154.954 40.9572 153.802 40.693 152.78 40.1639Z" fill="#999999"/>
<path d="M68.4205 32.8116C69.9105 32.8116 71.1224 34.0197 71.1224 35.5052C71.1224 36.9907 69.9105 38.1988 68.4205 38.1988C66.9306 38.1988 65.7187 36.9907 65.7187 35.5052C65.7187 34.0197 66.9306 32.8116 68.4205 32.8116ZM68.4205 29.8348C65.2793 29.8348 62.7331 32.3734 62.7331 35.5059C62.7331 38.6384 65.2793 41.177 68.4205 41.177C71.5618 41.177 74.108 38.6384 74.108 35.5059C74.108 32.3734 71.5618 29.8348 68.4205 29.8348Z" fill="#999999"/>
</svg>