<svg xmlns:xlink="http://www.w3.org/1999/xlink" xmlns="http://www.w3.org/2000/svg" width="177" height="62" viewBox="0 0 177 62" fill="none">
<path d="M137.889 40.0865V33.8677H130.333V40.0865H127.944V25.695H130.333V31.6507H137.889V25.695H140.278V40.0865H137.889Z" fill="#999999"/>
<path d="M154.22 40.0865L148.616 33.9554H146.008C146.008 37.3873 146.008 39.4352 146.052 40.0865H143.662C143.706 38.6523 143.706 36.26 143.706 32.9158C143.706 29.5716 143.706 27.1793 143.662 25.7451H146.052C146.008 26.9601 146.008 28.9641 146.008 31.7885H148.66L154.089 25.7451H157.085L150.83 32.7467L157.56 40.1366H154.214V40.0865H154.22Z" fill="#999999"/>
<path d="M120.432 35.8716C119.388 37.3058 117.743 38.1763 115.96 38.1763C114.572 38.1763 113.615 37.5688 113.615 36.3914C113.615 35.4333 114.353 34.7381 115.654 34.3498C116.655 34.0868 118.218 33.9616 120.432 33.6985V35.8716V35.8716ZM124.779 37.6502C124.517 38.0385 124.216 38.3015 123.822 38.3015C123.216 38.3015 122.822 37.8694 122.822 37.2557V30.1727C122.822 27.4359 120.476 25.3881 117.261 25.3881C115.266 25.3881 113.615 26.0394 112.614 27.0852L114.221 28.6947C114.741 28.0434 115.785 27.5612 117.086 27.5612C119.038 27.5612 120.432 28.7761 120.432 30.4295V31.5191C118.218 31.7822 116.655 31.9513 115.741 32.1705C112.877 32.7779 111.182 34.2997 111.182 36.6044C111.182 38.8652 112.964 40.3431 115.741 40.3431C117.693 40.3431 119.257 39.9549 120.52 38.4706C120.783 39.7732 122.04 40.3431 123.647 40.3431C124.736 40.3431 125.643 39.8672 126.343 39.0844L124.779 37.6502Z" fill="#999999"/>
<path d="M102.156 37.7816C99.4661 37.7816 97.2895 35.6085 97.2895 32.9093C97.2895 30.2102 99.4599 28.037 102.156 28.037C104.845 28.037 107.022 30.2102 107.022 32.9093C107.016 35.5647 104.845 37.7816 102.156 37.7816ZM102.156 25.6948C100.286 25.6948 98.5967 26.39 97.3333 27.5674C97.6398 24.9558 99.8539 22.9142 102.543 22.9142C104.37 22.8266 105.802 22.6074 106.884 22.2629C107.666 21.9999 108.623 21.4801 109.361 20.7411L107.629 19.0001C107.109 19.4761 106.54 19.7829 105.89 20.0898C105.152 20.3967 104.238 20.4405 102.543 20.5219C98.3778 20.5219 94.9878 23.91 94.944 28.131V32.9156C94.944 36.9174 98.1589 40.1301 102.149 40.1301C106.146 40.1301 109.355 36.9111 109.355 32.9156C109.355 28.9201 106.146 25.6948 102.156 25.6948Z" fill="#999999"/>
<path d="M30.7706 38.132V27.8677H25.8169C25.7293 33.9987 25.2977 36.6478 23.5151 38.1258H30.7706V38.132ZM33.0286 38.132H34.98V43.1734H32.6783V40.1737H22.3017V43.1734H20V38.132C21.4323 37.7438 22.258 36.7856 22.7333 35.7836C22.9522 35.2638 23.1211 34.5686 23.2087 33.5666C23.4714 31.6127 23.4714 29.7402 23.4714 25.826H33.0223V38.132H33.0286Z" fill="#999999"/>
<path d="M62.901 40.1741V27.9119H57.3844C57.3844 32.6089 57.2968 35.6963 56.6463 37.6064C56.2961 38.6523 55.4329 39.9987 54.3446 40.7377L52.6496 38.9967C53.6065 38.2577 54.0819 37.5626 54.4759 36.6044C54.7824 35.8216 54.8262 34.8196 54.9075 32.8656C54.9075 30.9117 54.9513 28.9953 54.9513 25.7764H65.2403V40.1678H62.901V40.1741Z" fill="#999999"/>
<path d="M39.1147 32.3163H49.0972C48.9658 31.0137 48.2716 29.9678 47.4459 29.185C44.844 26.7927 39.246 28.3145 39.1147 32.3163ZM50.4044 37.9652C49.1034 39.7938 46.8893 40.8334 44.2811 40.8334C40.0278 40.8334 36.8129 37.746 36.8129 33.3559C36.8129 28.9658 39.8527 25.8784 44.0621 25.8784C48.0151 25.8784 51.4427 28.7028 51.4427 32.9676C51.4427 33.5313 51.3989 34.0573 51.3114 34.5333H39.1584C39.59 37.1448 41.5915 38.7042 44.3248 38.7042C46.195 38.7042 48.0151 37.7898 48.797 36.3557L50.4044 37.9652Z" fill="#999999"/>
<path d="M84.8304 38.0885C82.0095 38.0885 79.7516 35.8277 79.7516 33.0033C79.7516 30.1789 82.0095 27.9181 84.8304 27.9181C87.6513 27.9181 89.9092 30.1789 89.9092 33.0033C89.9092 35.8277 87.6513 38.0885 84.8304 38.0885ZM84.918 25.7825H75.1481C71.1513 25.7825 67.9427 29.0015 67.9427 32.997C67.9427 36.9988 71.1576 40.2116 75.1481 40.2116H84.918C88.9147 40.2116 92.1234 36.9926 92.1234 32.997C92.1234 29.0015 88.9085 25.7825 84.918 25.7825Z" fill="#999999"/>
</svg>