<svg xmlns:xlink="http://www.w3.org/1999/xlink" xmlns="http://www.w3.org/2000/svg" width="177" height="62" viewBox="0 0 177 62" fill="none">
<path d="M157.643 17L154.964 19.625H160.321V29.25H163V17H157.643Z" fill="#999999"/>
<path d="M13 32.75V45H18.3571L21.0357 42.375H15.6786V32.75H13Z" fill="#999999"/>
<path fill-rule="evenodd" clip-rule="evenodd" d="M108.107 25.5295C108.922 25.5295 109.521 25.6756 109.422 25.6756V35.1554H110.703V39.4017C110.353 39.498 109.937 39.5627 109.521 39.5627C109.088 39.5627 108.656 39.5137 108.273 39.4017V37.1687H100.5V25.6756C100.5 25.6756 100.949 25.5295 101.83 25.5295C102.629 25.5295 103.163 25.6756 103.163 25.6756V35.1554H106.706V25.6756C106.706 25.6756 107.209 25.5295 108.107 25.5295ZM151.722 25.4875C153.72 25.4875 154.784 26.107 154.784 26.107C154.817 26.821 154.502 27.409 154.019 27.8535L153.987 27.843C153.368 27.6467 152.723 27.5432 152.072 27.5359C150.375 27.5359 149.294 28.3776 149.294 31.4095C149.294 34.4414 150.375 35.2359 152.072 35.2359C153.204 35.2359 154.168 34.8859 154.168 34.8859C154.667 35.3146 154.95 35.998 154.95 36.6796C154.95 36.6796 153.852 37.3 151.722 37.3C148.328 37.3 146.482 35.2368 146.482 31.3938C146.482 27.5516 148.328 25.4875 151.722 25.4875ZM131.69 25.5662V37.09C131.69 37.09 131.24 37.2361 130.376 37.2361C129.41 37.2361 129.029 37.0909 129.029 37.0909V27.5262H125.484V37.09L125.458 37.097C125.348 37.1259 124.887 37.2352 124.153 37.2352C123.204 37.2352 122.821 37.09 122.821 37.09V25.5662H131.69ZM142.695 25.5137C143.743 25.5137 144.242 25.6599 144.242 25.6599V37.09C144.242 37.09 143.743 37.2361 142.928 37.2361C142.029 37.2361 141.596 37.0909 141.596 37.0909V33.2496C141.596 30.4461 141.846 28.739 141.846 28.739H141.763L141.753 28.7565C141.654 28.9227 140.88 30.244 139.762 32.6196L137.606 37.0909C137.59 37.0909 137.058 37.2361 136.009 37.2361C134.862 37.2361 134.429 37.0909 134.429 37.0909V25.659C134.429 25.659 134.928 25.5137 135.743 25.5137C136.575 25.5137 137.091 25.659 137.107 25.659V29.4626C137.107 32.2337 136.857 34.1342 136.857 34.1342H136.941C137.207 33.2006 138.053 31.7175 138.802 30.1232L141.164 25.659C141.164 25.659 141.662 25.5137 142.695 25.5137ZM120.078 25.5199C120.793 25.5199 121.375 25.6651 121.375 25.6651L118.231 34.0599C117.266 36.5886 115.736 37.2239 114.271 37.2239C113.489 37.2239 112.907 37.0314 112.907 37.0314C112.907 37.0314 112.724 36.6289 112.724 36.0645C112.724 35.5167 112.84 35.0819 112.84 35.0819C112.84 35.0819 113.356 35.1466 113.822 35.1466C114.488 35.1466 115.087 34.8334 115.636 33.7055H115.037L111.243 25.6651C111.243 25.6651 111.776 25.5199 112.674 25.5199C113.655 25.5199 114.105 25.6651 114.105 25.6651L115.969 29.6945C116.418 30.6937 116.618 31.4506 116.618 31.4506H116.684C116.684 31.4506 116.866 30.6937 117.266 29.663L118.78 25.6651C118.78 25.6651 119.279 25.5199 120.078 25.5199Z" fill="#999999"/>
<path d="M21.0357 37.125V25.5925H29.0821C29.1625 25.8349 29.2679 26.0974 29.2679 26.6582C29.2679 27.0459 29.1795 27.416 29.0821 27.6907H23.6384V30.069H28.192C28.2741 30.3437 28.3554 30.6342 28.3554 31.0219C28.3554 31.4252 28.2902 31.8706 28.1929 32.1611H23.6393V35.0486H28.9107C29.0089 35.3067 29.0741 35.8606 29.0741 36.2159C29.0741 36.5711 29.025 36.8336 28.9107 37.1241H21.0357V37.125Z" fill="#999999"/>
<path fill-rule="evenodd" clip-rule="evenodd" d="M39.5518 25.5934V35.2481H40.7063V39.3527C40.3652 39.449 40.0072 39.5146 39.5518 39.5146C39.0964 39.5146 38.6893 39.4656 38.3313 39.3527V37.125H32.3116V39.3527C31.9545 39.449 31.3357 39.498 30.8804 39.498C30.425 39.498 30.2777 39.4499 29.9366 39.3527V35.249H31.2402C31.7241 33.1088 31.85 28.3032 32.2134 25.9372C32.2289 25.8406 32.2793 25.7526 32.3556 25.6895C32.4318 25.6263 32.5287 25.5922 32.6286 25.5934H39.5509H39.5518ZM37.0786 27.563H34.2705C34.0777 30.6395 33.9705 32.2932 33.8098 35.2481H37.0795V27.563H37.0786Z" fill="#999999"/>
<path d="M49.2196 25.7386L46.7607 30.3402C46.0286 31.9389 45.1964 33.2461 44.9366 34.1824H44.8545C44.8545 34.1824 45.0991 32.2775 45.0991 29.5011V25.7386L45.0705 25.7325C44.6426 25.6356 44.2044 25.5889 43.7652 25.5934C42.9679 25.5934 42.4795 25.7386 42.4795 25.7386V37.0725C42.4795 37.0725 42.9027 37.2178 44.025 37.2178C44.9357 37.2178 45.4482 37.104 45.5625 37.0777L45.5804 37.0734C45.5824 37.0733 45.5845 37.0733 45.5866 37.0734L47.9527 32.568C49.233 29.9955 49.8054 28.774 49.8054 28.774H49.8875C49.8875 28.774 49.6429 30.4855 49.6429 33.2942V37.0725C49.6429 37.0725 50.0661 37.2178 50.9446 37.2178C51.742 37.2178 52.2304 37.0725 52.2304 37.0725V25.7386C52.2304 25.7386 51.742 25.5934 50.717 25.5934C49.708 25.5934 49.2196 25.7386 49.2196 25.7386ZM57.6232 30.2107H62.1821V25.7386C62.1821 25.7386 62.6866 25.5934 63.4839 25.5934C64.2812 25.5934 64.7857 25.7386 64.7857 25.7386V37.0725C64.7857 37.0725 64.2973 37.2178 63.5 37.2178C62.6223 37.2178 62.1821 37.0725 62.1821 37.0725V32.3099H57.6232V37.0725C57.6232 37.0725 57.1027 37.2178 56.3214 37.2178C55.4589 37.2178 55.0196 37.0725 55.0196 37.0725V25.7386C55.0196 25.7386 55.508 25.5934 56.3054 25.5934C57.1187 25.5934 57.6232 25.7386 57.6232 25.7386V30.2107Z" fill="#999999"/>
<path fill-rule="evenodd" clip-rule="evenodd" d="M67.4714 25.666V37.146H72.2214C74.5813 37.146 76.0455 35.7898 76.0455 33.5287C76.0455 30.9449 74.4536 29.9483 71.9839 30.0839H70.0741V25.666C70.0741 25.666 69.6027 25.5208 68.7732 25.5208C67.8946 25.5208 67.4714 25.666 67.4714 25.666ZM70.0741 32.1069H71.8473C72.808 32.1069 73.6446 32.3256 73.6446 33.5287C73.6446 34.7319 72.808 35.1274 71.8473 35.1274H70.0741V32.1078V32.1069Z" fill="#999999"/>
<path d="M77.2768 25.7386V37.0725C77.2768 37.0725 77.717 37.2178 78.5795 37.2178C79.3598 37.2178 79.8804 37.0725 79.8804 37.0725V25.7386C79.8804 25.7386 79.3929 25.5934 78.5786 25.5934C77.7822 25.5934 77.2777 25.7386 77.2777 25.7386H77.2768ZM86.8964 30.4199L89.4929 25.7325C89.4929 25.7325 89.8313 25.5925 90.8393 25.5925C91.8643 25.5925 92.3527 25.7386 92.3527 25.7386V37.0725C92.3527 37.0725 91.8643 37.2178 91.067 37.2178C90.1884 37.2178 89.7661 37.0725 89.7661 37.0725V33.2943C89.7661 30.4855 90.0098 28.774 90.0098 28.774H89.9286C89.9286 28.774 89.3554 29.9946 88.075 32.568L85.7223 37.0725L85.6982 37.0777C85.583 37.104 85.0705 37.2178 84.1607 37.2178C83.0375 37.2178 82.6152 37.0725 82.6152 37.0725V25.7386C82.6152 25.7386 83.1027 25.5934 83.9009 25.5934C84.3496 25.5888 84.7972 25.6376 85.2339 25.7386V29.5011C85.2339 32.2775 84.9902 34.1824 84.9902 34.1824H85.0714C85.3322 33.2461 86.1643 32.0185 86.8964 30.4199ZM89.7857 23.1504C89.7857 22.6254 89.6232 22.3008 89.6232 22.3008H85.5161C85.5161 22.3008 85.3527 22.747 85.3527 23.1495C85.3527 23.5529 85.517 24 85.517 24H89.6232C89.6232 24 89.7857 23.6745 89.7857 23.1504Z" fill="#999999"/>
</svg>