<svg xmlns:xlink="http://www.w3.org/1999/xlink" xmlns="http://www.w3.org/2000/svg" width="177" height="62" viewBox="0 0 177 62" fill="none">
<path d="M40 23.7294H49.6467C53.9825 31.2646 60.2354 37.5178 67.7703 41.854V51.4997C54.7395 47.0761 44.4259 36.7609 40 23.7294Z" fill="#999999"/>
<path d="M67.7703 23.7294H49.6467C47.3561 19.7481 45.6412 15.4624 44.5529 11H55.0443C62.074 11 67.7703 16.7003 67.7703 23.7294Z" fill="#999999"/>
<path d="M80.4998 36.4592V46.9432C76.0373 45.8575 71.7514 44.144 67.7704 41.854V23.7294C74.8001 23.7294 80.4998 29.4294 80.4998 36.4592Z" fill="#999999"/>
<path d="M67.67 11.002C69.0754 17.3942 74.1065 22.4249 80.4983 23.8299V11.002H67.67Z" fill="#999999"/>
<path d="M101.648 26.7183V39.6762H97.6939V26.7183H93.4944V23.6764H105.845V26.7183H101.648ZM126.467 25.1368C127.564 24.2846 129.207 23.4334 131.154 23.4334C135.716 23.4334 137.906 26.6579 137.906 31.2809C137.906 37.121 134.621 40.1021 129.876 40.1021C125.192 40.1021 122.636 37.121 122.636 30.2472C122.636 24.5289 123.974 20.6352 125.921 18.7493C127.319 17.3497 128.902 16.6805 131.578 16.0112C133.222 15.5853 134.804 15.3426 135.411 15.0989L136.872 18.3838C136.081 18.8708 134.621 19.1749 131.702 19.7837C128.355 20.4527 126.833 21.6082 126.467 25.1368ZM130.118 36.8776C132.734 36.8776 133.708 34.7494 133.708 31.7068C133.708 28.9694 132.917 26.7183 130.24 26.7183C128.78 26.7183 127.685 27.0831 126.894 27.7524C126.713 28.7872 126.772 30.4287 126.772 31.4632C126.772 34.7494 127.806 36.8776 130.118 36.8776ZM117.343 39.6762L111.989 32.1938V39.6762H107.975V23.6764H111.989V30.6731L116.734 23.6764H121.116L115.943 30.9161L122.027 39.6762H117.343Z" fill="#999999"/>
</svg>