<svg xmlns:xlink="http://www.w3.org/1999/xlink" xmlns="http://www.w3.org/2000/svg" width="177" height="62" viewBox="0 0 177 62" fill="none">
<path d="M25.8546 37.7985H31.7388V24.1248H25.8546L16.8847 31.8463V24.1248H11V37.7985H16.8847L25.8546 30.0786V37.7985Z" fill="#999999"/>
<path d="M54.4282 37.7985V24.1248H48.34V28.6682H39.938V24.1248H33.8521V37.7985H39.938V33.012H48.34V37.7985H54.4282Z" fill="#999999"/>
<path d="M77.121 37.7985V24.1248H71.0318V28.6682H62.6292V24.1248H56.5411V37.7985H62.6292V33.012H71.0318V37.7985H77.121Z" fill="#999999"/>
<path d="M85.3216 31.0426V30.8773C85.3216 28.7674 86.9251 27.9423 89.766 27.9423H90.5367C93.3738 27.9423 94.9828 28.769 94.9828 30.8773V31.0426C94.9828 33.1542 93.3787 33.9793 90.5367 33.9793H89.766C86.9251 33.9793 85.3216 33.1542 85.3216 31.0426ZM79.0305 31.1237C79.0305 36.0277 82.683 38 89.8258 38H90.4753C97.6175 38 101.272 36.0277 101.272 31.1237V30.8011C101.272 25.8971 97.6208 23.9248 90.4753 23.9248H89.8258C82.683 23.9248 79.0305 25.8971 79.0305 30.8011V31.1237Z" fill="#999999"/>
<path d="M102.472 24.1249V28.5492H109.705V37.7986H115.791V28.5492H123.016V24.1249H102.472Z" fill="#999999"/>
<path d="M158.759 37.7985H166.612L159.603 30.8428L166.4 24.128H158.935L155.431 27.9872L151.926 24.1248H144.073L150.831 31.124L143.871 37.7985H151.337L155.051 33.8997L158.759 37.7985Z" fill="#999999"/>
<path d="M124.808 37.8233H142.711V34.1246H130.912V32.4216H140.96V29.5284H130.912V27.8118H142.713V24.1447H124.808V37.8233Z" fill="#999999"/>
</svg>