<svg xmlns:xlink="http://www.w3.org/1999/xlink" xmlns="http://www.w3.org/2000/svg" width="177" height="62" viewBox="0 0 177 62" fill="none">
<path d="M127.237 37.4765H122.527C122.274 37.5606 122.19 37.8129 121.938 38.0653C119.163 41.4294 114.957 44.1208 109.07 46.3075C103.94 48.2419 98.0523 49.4194 91.3239 49.8399C84.5955 50.2604 78.1195 49.8399 71.8116 48.4942C67.0177 47.485 62.0555 45.887 58.1026 43.5321C55.3271 41.9341 53.1404 40.252 51.7948 38.4858C51.3742 38.0653 51.7948 37.8971 52.1312 38.1494C54.0656 40.1679 56.7569 42.0182 59.8688 43.448C62.8966 44.8777 66.8495 46.1393 72.1481 47.1486C75.9328 47.8214 80.979 48.1578 87.2869 47.8214C94.0153 47.4009 100.323 45.887 105.538 43.448C108.565 42.0182 110.668 40.5884 112.35 39.0745C112.939 38.4017 112.434 37.6447 111.845 37.4765H109.49C105.369 42.0182 96.0338 46.728 80.8949 46.8121C65.7561 46.9803 49.4398 40.6725 49.5239 31.0846C49.6921 21.4967 64.9151 15.1888 79.9698 15.1888C95.0245 15.1888 104.781 19.1417 109.743 24.6085H112.182C112.686 24.3562 113.023 23.5993 112.518 23.0946C110.836 21.4967 108.734 20.151 105.706 18.7212C100.407 16.2822 94.1835 14.7683 87.4551 14.3478C81.1473 14.0114 76.101 14.3478 72.3163 15.0206C66.7654 16.0299 62.8966 17.2914 59.7847 18.7212C56.5887 20.151 54.0656 22.0854 52.1312 24.1039C51.7948 24.3562 51.3742 24.188 51.7948 23.7675C53.1404 22.0854 55.1589 20.3192 57.9344 18.7212C61.8873 16.3663 66.8495 14.6842 71.7275 13.6749C78.0354 12.3293 84.5114 11.8246 91.2398 12.2452C97.9682 12.6657 103.94 13.9272 108.986 15.7776C114.873 17.9643 119.163 20.8238 121.854 24.188C122.022 24.4403 122.274 24.6085 122.443 24.6926H127.237C128.414 24.7767 129.339 23.5993 128.666 22.2536C122.19 15.1047 108.229 9.97433 89.2213 9.97433C68.2793 9.97433 48.6829 18.8894 48.5988 30.9164C48.5147 43.0274 68.111 52.2789 90.4829 52.0266C109.827 51.8584 121.265 46.728 127.825 40.8407C130.012 38.9904 128.75 37.4765 127.237 37.4765Z" fill="#999999"/>
<path d="M75.5963 34.9533H75.9327V27.1315H74.2506V29.907C74.2506 30.1593 74.1665 30.4116 73.9142 30.4116H70.8023C70.6341 30.4116 70.4659 30.2434 70.4659 29.9911V28.7295C70.4659 27.2997 69.5407 27.2156 69.1202 27.2156H68.7838V35.0374H70.4659V32.346C70.4659 32.0096 70.6341 31.9255 70.9705 31.9255H73.8301C74.2506 31.9255 74.3347 32.0937 74.3347 32.4301V33.6076C74.3347 34.8692 75.2598 34.9533 75.5963 34.9533V34.9533ZM78.2876 27.0474H78.0353V34.8692H79.7174L82.9975 30.3275C83.1657 30.0752 83.5862 29.9911 83.5021 30.4957V33.4394C83.5021 34.8692 84.4272 34.9533 84.8478 34.9533H85.1842V27.1315H83.5021L80.222 31.7573C79.9697 32.0937 79.6333 32.0937 79.6333 31.6732V28.6454C79.6333 27.2156 78.7081 27.0474 78.2876 27.0474ZM98.2204 34.9533V28.8977C98.2204 28.6454 98.3886 28.4772 98.725 28.4772H99.9866C100.575 28.4772 101.08 27.7203 101.08 27.2156H95.1085C94.2675 27.2156 93.9311 27.8044 93.7629 28.4772H96.1178C96.4542 28.4772 96.5383 28.6454 96.5383 28.8977V35.0374L98.2204 34.9533ZM111.004 27.0474H110.668V34.8692H112.35L115.63 30.3275C115.798 30.0752 116.219 29.9911 116.135 30.4957V33.4394C116.135 34.8692 117.06 34.9533 117.48 34.9533H117.817V27.1315H116.135L112.855 31.7573C112.602 32.0937 112.266 32.0937 112.266 31.6732V28.6454C112.35 27.1315 111.341 27.0474 111.004 27.0474V27.0474ZM62.9806 35.0374H64.158C65.5037 35.0374 66.5971 33.944 66.5971 32.5983V29.4865C66.5971 28.1408 65.5037 27.0474 64.158 27.0474H62.9806C61.6349 27.0474 60.5415 28.1408 60.5415 29.4865V29.9911C60.5415 30.3275 60.3733 30.4957 60.0369 30.4957H58.9436C58.7754 30.4957 58.6071 30.3275 58.6071 30.0752V28.6454C58.6071 27.2156 57.682 27.1315 57.2615 27.1315H57.0092V34.9533H58.6912V32.1778C58.6912 31.8414 58.8595 31.7573 59.1959 31.7573H60.121C60.4574 31.7573 60.5415 31.9255 60.5415 32.2619V32.6824C60.5415 33.944 61.6349 35.0374 62.9806 35.0374V35.0374ZM62.0554 29.6547C62.0554 28.8977 62.6442 28.309 63.4011 28.309H63.7375C64.4945 28.309 65.0832 28.8977 65.0832 29.6547V32.4301C65.0832 33.1871 64.4945 33.7758 63.7375 33.7758H63.4852C62.7283 33.7758 62.1395 33.1871 62.1395 32.4301V29.6547H62.0554ZM89.6417 28.3931H91.7443C92.249 28.2249 92.5854 27.7203 92.6695 27.1315H89.4735C88.1278 27.1315 87.0345 28.2249 87.0345 29.5706V32.4301C87.0345 33.7758 88.1278 34.8692 89.4735 34.8692H92.8377C92.7536 34.2804 92.3331 33.7758 91.8285 33.6076H89.6417C89.1371 33.6076 88.8007 33.1871 88.8007 32.7665V29.3182C88.8007 28.8136 89.1371 28.3931 89.6417 28.3931ZM106.631 27.1315H102.51V34.9533H104.276V32.4301H106.547C107.64 32.346 108.397 31.9255 108.818 31.1685C109.154 30.4116 109.07 29.5706 108.902 28.6454C108.565 27.7203 107.724 27.2156 106.631 27.1315V27.1315ZM106.379 31.1685H104.36C104.276 31.1685 104.108 31.0844 104.108 30.9162V28.6454C104.108 28.5613 104.192 28.3931 104.36 28.3931H106.547C107.051 28.3931 107.388 28.7295 107.388 29.2341V30.3275C107.472 30.6639 106.967 31.1685 106.379 31.1685V31.1685ZM127.152 33.4394C127.152 34.8692 128.078 34.9533 128.498 34.9533H128.834V27.1315H126.9C126.564 27.1315 126.395 27.2997 126.311 27.5521L124.797 31.6732C124.629 32.2619 124.293 32.2619 124.04 31.5891C123.536 30.2434 123.031 28.9818 122.611 27.6362C122.527 27.3838 122.358 27.2156 122.022 27.2156H120.088V35.0374H120.424C120.76 35.0374 121.77 34.9533 121.77 33.5235V30.5798C121.77 30.0752 122.19 30.0752 122.274 30.4116L123.704 33.944H125.218L126.648 30.4116C126.816 30.0752 127.236 30.0752 127.152 30.5798V33.4394V33.4394Z" fill="#999999"/>
</svg>