<svg xmlns:xlink="http://www.w3.org/1999/xlink" xmlns="http://www.w3.org/2000/svg" width="25" height="24" viewBox="0 0 25 24" fill="none">
<path d="M9.00315 11.7014C9.78112 13.2919 11.0704 14.5753 12.6644 15.346C12.781 15.4013 12.91 15.4252 13.0387 15.4155C13.1674 15.4058 13.2914 15.3627 13.3983 15.2905L15.7454 13.7254C15.8492 13.6562 15.9687 13.6139 16.0929 13.6025C16.2172 13.5911 16.3423 13.6109 16.457 13.66L20.8479 15.5419C20.9971 15.6052 21.1216 15.7154 21.2028 15.8556C21.2839 15.9959 21.3172 16.1588 21.2978 16.3197C21.159 17.4057 20.6291 18.4039 19.8074 19.1273C18.9856 19.8508 17.9283 20.2499 16.8335 20.25C13.452 20.25 10.209 18.9067 7.81788 16.5156C5.4268 14.1245 4.0835 10.8815 4.0835 7.49997C4.08355 6.40513 4.48268 5.34786 5.20613 4.5261C5.92959 3.70435 6.92777 3.17448 8.01378 3.03569C8.17467 3.01622 8.33752 3.04956 8.47781 3.1307C8.6181 3.21183 8.72823 3.33636 8.79159 3.48552L10.6751 7.88032C10.7238 7.994 10.7436 8.11796 10.7329 8.24116C10.7221 8.36436 10.681 8.48299 10.6133 8.58647L9.0536 10.9696C8.98262 11.0768 8.94065 11.2006 8.93181 11.3288C8.92297 11.4571 8.94755 11.5855 9.00315 11.7014Z" fill="#a60f6c"/>
</svg>