<svg xmlns:xlink="http://www.w3.org/1999/xlink" xmlns="http://www.w3.org/2000/svg" width="177" height="62" viewBox="0 0 177 62" fill="none">
<path d="M111.77 21.1491V29.4514H115.772C118.064 29.4514 119.923 27.5922 119.923 25.3002C119.923 23.0083 118.064 21.1491 115.772 21.1491H111.77ZM111.77 34.5282V42.7104H106.395V16.0724H115.772C120.867 16.0724 125 20.2047 125 25.3002C125 30.3958 120.867 34.5282 115.772 34.5282H111.77ZM96.3606 21.4478V42.7104H90.9852V21.4478H84.8333V16.0724H102.512V21.4478H96.3606Z" fill="#999999"/>
<path fill-rule="evenodd" clip-rule="evenodd" d="M70.3014 16.0461C77.6959 16.0461 83.6924 22.0427 83.6924 29.4372C83.6924 36.8316 77.6959 42.8282 70.3014 42.8282C62.9071 42.8282 56.9104 36.8316 56.9104 29.4372C56.9104 22.0427 62.9071 16.0461 70.3014 16.0461ZM70.3014 21.8057C74.5159 21.8057 77.9329 25.2227 77.9329 29.4372C77.9329 33.6516 74.5159 37.0686 70.3014 37.0686C66.0871 37.0686 62.67 33.6516 62.67 29.4372C62.67 25.2227 66.0871 21.8057 70.3014 21.8057Z" fill="#999999"/>
<path fill-rule="evenodd" clip-rule="evenodd" d="M66.1549 20.0779C73.5494 20.0779 79.546 26.0744 79.546 33.4689C79.546 40.8634 73.5494 46.8599 66.1549 46.8599C58.7606 46.8599 52.7639 40.8634 52.7639 33.4689C52.7639 26.0744 58.7606 20.0779 66.1549 20.0779ZM66.1549 25.8375C70.3694 25.8375 73.7864 29.2545 73.7864 33.4689C73.7864 37.6833 70.3694 41.1003 66.1549 41.1003C61.9406 41.1003 58.5235 37.6833 58.5235 33.4689C58.5235 29.2545 61.9406 25.8375 66.1549 25.8375Z" fill="#999999"/>
<path fill-rule="evenodd" clip-rule="evenodd" d="M77.3407 40.8289C75.2949 42.0961 72.8834 42.8286 70.3005 42.8286C66.8734 42.8286 63.7472 41.5397 61.3784 39.4213C62.6858 40.4717 64.3461 41.1007 66.1536 41.1007C69.2839 41.1007 71.9737 39.215 73.1507 36.5181C75.9532 35.3887 77.9319 32.6442 77.9319 29.4376C77.9319 27.7089 77.3567 26.1144 76.3877 24.8351C78.3568 27.1664 79.5446 30.1793 79.5446 33.4693C79.5446 36.1879 78.7332 38.7167 77.3407 40.8289ZM60.0662 38.0711C58.0971 35.7398 56.9094 32.7274 56.9094 29.4376C56.9094 26.7191 57.7208 24.1898 59.1133 22.0777C61.1591 20.8105 63.5707 20.0782 66.1536 20.0782C69.5806 20.0782 72.7068 21.3668 75.0756 23.4852C73.7681 22.4349 72.1079 21.8061 70.3005 21.8061C67.1701 21.8061 64.4803 23.6915 63.3033 26.3885C60.5008 27.5179 58.5221 30.2626 58.5221 33.4693C58.5221 35.1977 59.0972 36.7917 60.0662 38.0711Z" fill="#999999"/>
<path d="M124.164 29.1418H117.346C118.858 28.5214 119.923 27.0351 119.923 25.3002C119.923 23.0083 118.064 21.1491 115.772 21.1491H111.77V29.1418H106.395V16.0724H115.772C120.868 16.0724 125 20.2047 125 25.3002C125 26.6711 124.7 27.9721 124.164 29.1418ZM96.3609 29.1418H90.9855V21.4477H84.8336V16.0724H102.513V21.4477H96.3609V29.1418ZM70.3019 16.0461C77.5976 16.0461 83.532 21.8837 83.6892 29.1418H72.4412C71.0647 27.1459 68.7628 25.8374 66.155 25.8374C65.1475 25.8374 64.1861 26.0328 63.3055 26.3876C62.935 27.2365 62.714 28.1657 62.6768 29.1418H53.4793C54.4885 26.1857 56.503 23.6948 59.1145 22.0769C61.5095 18.4439 65.6261 16.0461 70.3019 16.0461Z" fill="#999999"/>
</svg>