<svg xmlns:xlink="http://www.w3.org/1999/xlink" xmlns="http://www.w3.org/2000/svg" width="177" height="62" viewBox="0 0 177 62" fill="none">
<path d="M58.2325 14.0551C58.1014 14.6451 57.3585 18.0974 56.5719 21.7683C55.7853 25.4391 55.1079 28.6074 55.0642 28.804C54.9768 29.1536 55.2172 29.1973 57.5333 29.1973H60.0679L61.1167 24.2155C61.7067 21.4842 62.2748 18.884 62.3841 18.4252L62.6026 17.6167H65.9675H69.3106L69.6602 16.1309C69.835 15.3224 70.0535 14.2955 70.119 13.8366L70.272 13.0282H64.3724H58.4729L58.2325 14.0551Z" fill="#999999"/>
<path d="M72.4133 13.0719C72.3915 13.1156 71.6267 16.7209 70.6872 21.1128L69.0047 29.0881L71.3864 29.1536C72.894 29.1973 73.8554 29.1318 73.9428 28.9788C74.0084 28.8696 74.2488 27.8645 74.4673 26.7938L74.8824 24.8273H76.3245C81.8745 24.8273 84.868 22.4893 84.868 18.163C84.868 15.7376 83.2947 13.7711 80.9349 13.2685C80.0172 13.0719 72.4352 12.8971 72.4133 13.0719ZM79.4491 17.9882C79.9954 18.4689 79.9517 19.0588 79.2962 19.6925C78.8373 20.1732 78.5751 20.2388 77.3078 20.2388C75.9094 20.2388 75.8657 20.2169 75.9749 19.7362C76.0405 19.474 76.1716 18.884 76.2371 18.4252L76.3901 17.6167H77.7229C78.6406 17.6167 79.1651 17.726 79.4491 17.9882Z" fill="#999999"/>
<path d="M88.0361 13.5088C87.9706 13.7929 87.2277 17.2015 86.3974 21.1127C85.5671 25.0239 84.8242 28.4325 84.7586 28.6947C84.6494 29.1973 84.6712 29.1973 86.8999 29.1973H89.1505L92.8432 25.3516C94.8753 23.2322 96.5796 21.5934 96.6233 21.7245C96.6888 21.9211 95.5526 27.6896 95.2249 28.804C95.1156 29.1536 95.3341 29.1973 97.6284 29.1973C99.8353 29.1973 100.141 29.1536 100.25 28.804C100.316 28.6073 101.059 25.1331 101.911 21.1127C102.763 17.0922 103.506 13.6181 103.572 13.3996C103.681 13.0718 103.484 13.0281 101.408 13.0281H99.1142L95.3778 16.8956C93.3457 19.0369 91.6196 20.7194 91.5759 20.6757C91.5103 20.5883 92.5591 15.4753 93.0617 13.5307C93.1709 13.0281 93.1709 13.0281 90.6582 13.0281C88.2328 13.0281 88.1454 13.05 88.0361 13.5088Z" fill="#999999"/>
<path d="M106.281 13.1592C106.281 13.2248 105.538 16.6989 104.642 20.8723C103.746 25.0457 103.003 28.6292 103.003 28.8258C103.003 29.1754 103.266 29.1973 105.451 29.1536L107.898 29.088L108.4 26.6845C108.685 25.3516 108.947 24.0625 109.012 23.7784C109.122 23.3196 109.209 23.2977 111.612 23.2977H114.082L113.601 25.5264C113.339 26.7719 113.055 28.1048 112.967 28.4762L112.792 29.1973H115.327C117.774 29.1973 117.862 29.1754 117.971 28.6947C118.036 28.4325 118.779 24.9583 119.61 21.0034C120.462 17.0267 121.205 13.6181 121.27 13.3996C121.38 13.0718 121.161 13.0281 118.867 13.0281H116.332L116.179 13.6181C116.114 13.9677 115.83 15.2131 115.567 16.4149L115.109 18.5999L112.661 18.6655C110.673 18.7092 110.214 18.6655 110.214 18.4251C110.214 18.2503 110.454 17.0267 110.76 15.6938C111.066 14.361 111.307 13.2248 111.307 13.1592C111.307 13.0937 110.17 13.0281 108.794 13.0281C107.417 13.0281 106.281 13.0937 106.281 13.1592Z" fill="#999999"/>
<path d="M54.2776 32.3437C54.2776 32.3874 53.5347 35.8616 52.6388 40.035C51.743 44.2302 51.0001 47.7918 51.0001 47.9229C51.0001 48.1414 51.6337 48.207 53.491 48.207C55.8945 48.207 55.9819 48.1851 56.0912 47.7044C56.1567 47.4422 56.5719 45.5412 57.0089 43.5092C57.4459 41.4553 57.8392 39.7509 57.8829 39.7291C57.9266 39.6854 58.6695 40.7123 59.5435 42.0234C60.3957 43.3125 61.1386 44.4269 61.1823 44.4706C61.226 44.5143 62.4496 43.4436 63.8917 42.0889C65.3338 40.7342 66.5574 39.6635 66.6011 39.7072C66.6448 39.7509 66.2515 41.6956 65.749 43.9899L64.8312 48.207H67.4314C68.8517 48.207 70.0098 48.1633 70.0098 48.1196C70.0098 48.0759 70.7527 44.6017 71.6485 40.4283C72.5444 36.2331 73.2873 32.6715 73.2873 32.5185C73.2873 32.3219 72.6318 32.2563 70.7308 32.2563H68.1525L65.2683 35.1405C63.6732 36.7356 62.3403 37.9811 62.2748 37.9155C62.2092 37.8718 61.5756 36.5608 60.8545 35.0313L59.5435 32.2563H56.9215C55.4575 32.2563 54.2776 32.3 54.2776 32.3437Z" fill="#999999"/>
<path d="M76.4555 38.7458C74.4235 42.3074 72.3695 45.8908 71.9107 46.7212L71.0585 48.207H73.8117H76.5648L77.3295 46.6775L78.0943 45.1479H80.4978H82.9014V45.8471C82.9014 46.2405 82.9669 46.9397 83.0325 47.3767L83.1854 48.207H85.7856C88.1673 48.207 88.3858 48.1633 88.2765 47.8137C88.211 47.617 87.6647 44.0336 87.031 39.8383L85.873 32.2563H83.0325L80.1701 32.2782L76.4555 38.7458ZM82.5299 40.2753L82.6391 42.0889H81.1315C80.3012 42.0889 79.6238 42.0452 79.6238 42.0015C79.6238 41.936 80.1919 40.756 80.8693 39.3358L82.1366 36.7793L82.2677 37.6315C82.3551 38.0903 82.4643 39.2921 82.5299 40.2753Z" fill="#999999"/>
<path d="M93.0617 32.737C92.9962 33.0211 92.297 36.2331 91.5103 39.9039C90.7237 43.5747 90.0027 46.9397 89.8934 47.3985L89.7186 48.2288L92.2533 48.1633L94.7879 48.0977L95.356 45.5849C96.1644 41.9578 95.8148 42.3074 98.6335 42.3074C99.9445 42.3074 101.037 42.3511 101.037 42.4167C101.037 42.5915 99.9445 47.5952 99.8353 47.9229C99.7697 48.1414 100.36 48.207 102.304 48.207H104.861L106.456 40.6686C107.352 36.539 108.117 32.9555 108.182 32.7152C108.291 32.2782 108.204 32.2563 105.757 32.2563C103.309 32.2563 103.222 32.2782 103.113 32.737C103.047 33.0211 102.763 34.2665 102.501 35.5338L102.02 37.8281L99.5512 37.8937C97.6284 37.9374 97.104 37.8937 97.104 37.6533C97.104 37.413 97.6503 34.6817 98.0873 32.737C98.1965 32.2563 98.1747 32.2563 95.6837 32.2563C93.2584 32.2563 93.171 32.2782 93.0617 32.737Z" fill="#999999"/>
<path d="M110.87 32.3437C110.87 32.3874 110.127 35.8397 109.231 40.0131C108.335 44.1647 107.592 47.7263 107.592 47.9011C107.592 48.1414 108.029 48.207 109.865 48.207H112.137L115.808 44.3832C117.84 42.2856 119.522 40.6031 119.544 40.6468C119.588 40.6905 119.282 42.3293 118.845 44.2958C118.43 46.2623 118.08 47.9448 118.08 48.0322C118.08 48.1414 119.195 48.207 120.549 48.207H123.018L124.613 40.7123C125.487 36.6045 126.252 33.0211 126.318 32.737C126.427 32.2563 126.405 32.2563 124.176 32.2563H121.904L118.211 36.0801C116.201 38.1996 114.497 39.882 114.453 39.8383C114.388 39.7946 114.693 38.0903 115.13 36.0582C115.546 34.0262 115.895 32.3437 115.895 32.3219C115.895 32.2782 114.759 32.2563 113.382 32.2563C112.006 32.2563 110.87 32.3 110.87 32.3437Z" fill="#999999"/>
</svg>