<svg xmlns:xlink="http://www.w3.org/1999/xlink" xmlns="http://www.w3.org/2000/svg" width="177" height="62" viewBox="0 0 177 62" fill="none">
<path d="M40.4769 23.4726C42.1385 23.4726 43.9231 23.8418 45.1538 24.5187L45.3385 24.6418L43.7385 26.2418C42.7538 25.9341 41.7077 25.7495 40.7231 25.7495C38.8154 25.7495 37.6462 26.3034 37.6462 27.5957C37.6462 28.6418 38.5077 29.1957 39.6769 29.688L39.9846 29.8111C40.0462 29.8111 40.1077 29.8726 40.1077 29.8726L40.5385 30.0572L41.9538 30.5495L42.3846 30.6726L42.6923 30.7957C42.7538 30.7957 42.8154 30.8572 42.8154 30.8572L43.1231 30.9803C43.1846 30.9803 43.2462 31.0418 43.2462 31.0418L43.4923 31.1649C45.0923 31.9034 46.4462 33.0111 46.4462 35.1034C46.4462 38.3034 43.6769 39.4111 40.5385 39.4111C38.5692 39.4111 36.7231 38.9803 35.2462 38.1803L35 38.0572L36.6615 36.4572C37.8923 36.9495 39.1231 37.1341 40.3538 37.1341C42.3231 37.1341 43.8615 36.7034 43.8615 35.2264C43.8615 34.1188 43 33.5034 41.8923 33.0111L41.5846 32.888L41.2769 32.7649L40.9692 32.6418L39.5538 32.1495L39.1846 32.0264C39.1231 32.0264 39.0615 31.9649 39 31.9649L38.6308 31.8418C36.7231 31.1034 35 30.0572 35 27.6572C35 24.8264 37.5231 23.4726 40.4769 23.4726ZM51.7385 23.7803V30.1188H53.0308L59.5538 23.7803H62.6923L55.1231 31.2264L63.1231 39.0418H59.9846L53.0923 32.4572H51.8V39.0418H49.1538V23.7803H51.7385ZM71.6154 23.7803C74.8769 23.7803 76.9692 25.0726 76.9692 27.6572C76.9692 29.5034 75.8615 30.6111 74.5077 31.0418L74.7538 31.1034C76.1077 31.5341 77.5846 32.5803 77.5846 34.8572C77.5846 37.5649 75.4923 38.6111 73.4 38.9803L73.1538 39.0418L72.9077 39.1034H72.6615C72.6 39.1034 72.6 39.1034 72.5385 39.1034H72.2923C72.2308 39.1034 72.2308 39.1034 72.1692 39.1034H71.9231H65.1538V23.8418H71.6154V23.7803ZM125.831 23.7803L132.354 39.0418H129.769L128.415 35.7803H120.538L119.185 39.0418H116.477L123.062 23.7803H125.831ZM108.108 23.7803V36.7034H115.615L114.631 39.0418H105.585V23.7803H108.108ZM141.031 23.7803C144.292 23.7803 146.385 25.0726 146.385 27.6572C146.385 29.5034 145.277 30.6111 143.923 31.0418L144.169 31.1034C145.523 31.5341 147 32.5803 147 34.8572C147 37.5034 144.969 38.5495 142.938 38.9188L142.692 38.9803C142.631 38.9803 142.631 38.9803 142.569 38.9803L142.323 39.0418H142.077C142.015 39.0418 142.015 39.0418 141.954 39.0418H141.708C141.646 39.0418 141.646 39.0418 141.585 39.0418H141.338H134.569V23.7803H141.031ZM71.7385 32.2111H67.5538V36.8264H71.3692H71.7385H71.9846H72.2308C72.2923 36.8264 72.2923 36.8264 72.3538 36.8264H72.6C72.6615 36.8264 72.7231 36.8264 72.8462 36.8264L73.0923 36.7649C74.2 36.5803 75.0615 36.0264 75.0615 34.5495C75.0615 32.8264 73.7077 32.3341 72.4154 32.2111H72.2308H72.0462H71.7385ZM141.215 32.2111H137.031V36.8264H140.846H141.215H141.462H141.708C141.769 36.8264 141.769 36.8264 141.831 36.8264H142.077C142.138 36.8264 142.2 36.8264 142.323 36.8264L142.569 36.7649C143.677 36.5803 144.538 36.0264 144.538 34.5495C144.538 32.8264 143.185 32.3341 141.892 32.2111H141.708H141.523H141.215ZM124.477 26.1803C124.415 26.3034 124.415 26.3649 124.415 26.488L124.354 26.7341L124.231 27.0418L121.523 33.5649H127.554L124.846 27.0418L124.723 26.7341C124.723 26.6726 124.723 26.6726 124.662 26.6111L124.6 26.3649C124.477 26.3034 124.477 26.2418 124.477 26.1803ZM71.3692 25.9341H67.6154V30.1188H71.7385C73.2154 30.1188 74.3846 29.5034 74.3846 28.0264C74.3846 26.488 73.2154 25.9341 71.3692 25.9341ZM140.785 25.9341H137.031V30.1188H141.154C142.631 30.1188 143.8 29.5034 143.8 28.0264C143.8 26.488 142.631 25.9341 140.785 25.9341Z" fill="#999999"/>
<path d="M90.3231 27.8154L97.5846 34.9538L99.9846 32.5538L92.7846 25.4769L99.9846 18.3385L97.5846 16L90.3231 23.0769L87.9231 25.4769L90.3231 27.8154Z" fill="#999999"/>
<path d="M90.3846 37.2923L83.1231 44.4308L85.5231 46.7692L92.7846 39.6923L95.1846 37.2923L92.7846 34.9538L85.5231 27.8154L83.1231 30.2154L90.3846 37.2923Z" fill="#999999"/>
</svg>