<svg class="b-main-company__svg" viewBox="0 0 309 270" fill="none" xmlns="http://www.w3.org/2000/svg">
                    <path d="M157.312 28.5602H97.6211V223.133H157.439V139C157.439 101.153 178.821 78.5684 213.694 78.5684C220.439 78.5684 243.419 78.5684 246.07 78.5684V28.5605C241.129 28.5601 220.057 28.5602 215.73 28.5602C193.966 28.5602 175.13 26.0032 157.312 46.8504V28.5602Z" fill="url(#paint0_linear_8787_3884)"></path>
                    <path d="M157.312 28.5602H97.6211V223.133H157.439V139C157.439 101.153 178.821 78.5684 213.694 78.5684C220.439 78.5684 243.419 78.5684 246.07 78.5684V28.5605C241.129 28.5601 220.057 28.5602 215.73 28.5602C193.966 28.5602 175.13 26.0032 157.312 46.8504V28.5602Z" fill="url(#paint1_linear_8787_3884)"></path>
                    <g filter="url(#filter0_d_8787_3884)">
                    <path d="M156.84 29.6165H97.2734V219.837H156.967V137.586C156.967 100.585 178.304 78.5062 213.104 78.5062C219.836 78.5062 242.767 78.5062 245.413 78.5062V29.6168C240.483 29.6165 219.455 29.6165 215.136 29.6165C193.418 29.6165 174.621 27.1168 156.84 47.4976V29.6165Z" fill="url(#paint2_linear_8787_3884)"></path>
                    </g>
                    <g filter="url(#filter1_d_8787_3884)">
                    <circle cx="55.4127" cy="145.413" r="26.4127" fill="#E13737"></circle>
                    </g>
                    <g clip-path="url(#clip0_8787_3884)">
                    <circle cx="55.6704" cy="139.834" r="6.33445" stroke="white"></circle>
                    <mask id="path-5-inside-1_8787_3884" fill="white">
                    <path d="M42 160.331C42 156.706 43.4401 153.229 46.0035 150.666C48.5669 148.102 52.0437 146.662 55.6689 146.662C59.2941 146.662 62.7708 148.102 65.3343 150.666C67.8977 153.229 69.3378 156.706 69.3378 160.331L55.6689 160.331L42 160.331Z"></path>
                    </mask>
                    <path d="M42 160.331C42 156.706 43.4401 153.229 46.0035 150.666C48.5669 148.102 52.0437 146.662 55.6689 146.662C59.2941 146.662 62.7708 148.102 65.3343 150.666C67.8977 153.229 69.3378 156.706 69.3378 160.331L55.6689 160.331L42 160.331Z" stroke="white" stroke-width="2" mask="url(#path-5-inside-1_8787_3884)"></path>
                    </g>
                    <g filter="url(#filter2_d_8787_3884)">
                    <path d="M48.9023 51.3379H129.855C134.366 51.3379 138.024 54.9952 138.024 59.5068V69.2392C138.024 73.7508 134.366 77.4081 129.855 77.4081H57.0712C52.5597 77.4081 48.9023 73.7508 48.9023 69.2392V51.3379Z" fill="#222222" shape-rendering="crispEdges"></path>
                    <path d="M71.1554 67.9253C70.7081 67.9253 70.3073 67.8266 69.9529 67.6291C69.6044 67.4316 69.3285 67.1556 69.1251 66.8013C68.9218 66.4469 68.8202 66.0345 68.8202 65.564C68.8202 65.0934 68.9218 64.6839 69.1251 64.3354C69.3285 63.981 69.6044 63.7051 69.9529 63.5076C70.3073 63.3101 70.7081 63.2113 71.1554 63.2113C71.5446 63.2113 71.896 63.2985 72.2097 63.4727C72.5234 63.647 72.7732 63.9084 72.9591 64.257C73.1508 64.6055 73.2466 65.0412 73.2466 65.564C73.2466 66.0868 73.1537 66.5225 72.9678 66.871C72.7877 67.2195 72.5408 67.4838 72.2271 67.6639C71.9135 67.8382 71.5562 67.9253 71.1554 67.9253ZM71.2251 67.1934C71.5155 67.1934 71.7769 67.1266 72.0093 66.993C72.2475 66.8594 72.4334 66.6706 72.567 66.4266C72.7064 66.1768 72.7761 65.8893 72.7761 65.564C72.7761 65.2329 72.7064 64.9482 72.567 64.7101C72.4334 64.4661 72.2475 64.2773 72.0093 64.1437C71.7769 64.0101 71.5155 63.9433 71.2251 63.9433C70.9288 63.9433 70.6645 64.0101 70.4322 64.1437C70.1998 64.2773 70.0139 64.4661 69.8745 64.7101C69.7351 64.9482 69.6654 65.2329 69.6654 65.564C69.6654 65.8893 69.7351 66.1768 69.8745 66.4266C70.0139 66.6706 70.1998 66.8594 70.4322 66.993C70.6645 67.1266 70.9288 67.1934 71.2251 67.1934ZM72.8022 67.873V66.627L72.8545 65.5553L72.7674 64.4835V61.4077H73.6039V67.873H72.8022ZM77.243 67.9253C76.7492 67.9253 76.3135 67.8237 75.9359 67.6204C75.5642 67.417 75.2737 67.1382 75.0646 66.7839C74.8613 66.4295 74.7596 66.0229 74.7596 65.564C74.7596 65.1051 74.8584 64.6984 75.0559 64.3441C75.2592 63.9897 75.5351 63.7138 75.8837 63.5163C76.238 63.313 76.6359 63.2113 77.0774 63.2113C77.5247 63.2113 77.9197 63.3101 78.2624 63.5076C78.6052 63.7051 78.8724 63.9839 79.0641 64.3441C79.2616 64.6984 79.3603 65.1138 79.3603 65.5901C79.3603 65.625 79.3574 65.6656 79.3516 65.7121C79.3516 65.7586 79.3487 65.8021 79.3429 65.8428H75.4131V65.2416H78.9072L78.5674 65.4507C78.5732 65.1544 78.5122 64.8901 78.3844 64.6578C78.2566 64.4254 78.0795 64.2453 77.8529 64.1175C77.6322 63.9839 77.3737 63.9171 77.0774 63.9171C76.787 63.9171 76.5285 63.9839 76.3019 64.1175C76.0754 64.2453 75.8982 64.4283 75.7704 64.6665C75.6426 64.8988 75.5787 65.1661 75.5787 65.4681V65.6075C75.5787 65.9154 75.6484 66.1913 75.7878 66.4353C75.933 66.6735 76.1335 66.8594 76.389 66.993C76.6446 67.1266 76.938 67.1934 77.2691 67.1934C77.5421 67.1934 77.789 67.1469 78.0098 67.054C78.2363 66.961 78.4338 66.8216 78.6023 66.6357L79.0641 67.176C78.855 67.4199 78.5936 67.6058 78.2799 67.7336C77.972 67.8614 77.6264 67.9253 77.243 67.9253ZM81.648 67.873L79.6264 63.2549H80.4978L82.2928 67.4374H81.8745L83.7043 63.2549H84.5234L82.5019 67.873H81.648ZM87.2328 67.9253C86.7391 67.9253 86.3034 67.8237 85.9258 67.6204C85.554 67.417 85.2636 67.1382 85.0545 66.7839C84.8511 66.4295 84.7495 66.0229 84.7495 65.564C84.7495 65.1051 84.8482 64.6984 85.0457 64.3441C85.2491 63.9897 85.525 63.7138 85.8735 63.5163C86.2279 63.313 86.6258 63.2113 87.0673 63.2113C87.5146 63.2113 87.9096 63.3101 88.2523 63.5076C88.595 63.7051 88.8622 63.9839 89.0539 64.3441C89.2514 64.6984 89.3502 65.1138 89.3502 65.5901C89.3502 65.625 89.3473 65.6656 89.3415 65.7121C89.3415 65.7586 89.3386 65.8021 89.3328 65.8428H85.403V65.2416H88.8971L88.5573 65.4507C88.5631 65.1544 88.5021 64.8901 88.3743 64.6578C88.2465 64.4254 88.0693 64.2453 87.8428 64.1175C87.622 63.9839 87.3635 63.9171 87.0673 63.9171C86.7768 63.9171 86.5183 63.9839 86.2918 64.1175C86.0652 64.2453 85.888 64.4283 85.7603 64.6665C85.6325 64.8988 85.5686 65.1661 85.5686 65.4681V65.6075C85.5686 65.9154 85.6383 66.1913 85.7777 66.4353C85.9229 66.6735 86.1233 66.8594 86.3789 66.993C86.6345 67.1266 86.9279 67.1934 87.259 67.1934C87.532 67.1934 87.7789 67.1469 87.9996 67.054C88.2262 66.961 88.4237 66.8216 88.5921 66.6357L89.0539 67.176C88.8448 67.4199 88.5834 67.6058 88.2697 67.7336C87.9619 67.8614 87.6162 67.9253 87.2328 67.9253ZM90.5117 67.873V61.4077H91.3482V67.873H90.5117ZM94.9234 67.9253C94.4586 67.9253 94.0462 67.8237 93.686 67.6204C93.3259 67.417 93.0412 67.1382 92.8321 66.7839C92.623 66.4237 92.5184 66.0171 92.5184 65.564C92.5184 65.1051 92.623 64.6984 92.8321 64.3441C93.0412 63.9897 93.3259 63.7138 93.686 63.5163C94.0462 63.313 94.4586 63.2113 94.9234 63.2113C95.3823 63.2113 95.7918 63.313 96.152 63.5163C96.5179 63.7138 96.8026 63.9897 97.0059 64.3441C97.215 64.6926 97.3196 65.0993 97.3196 65.564C97.3196 66.0229 97.215 66.4295 97.0059 66.7839C96.8026 67.1382 96.5179 67.417 96.152 67.6204C95.7918 67.8237 95.3823 67.9253 94.9234 67.9253ZM94.9234 67.1934C95.2196 67.1934 95.4839 67.1266 95.7163 66.993C95.9544 66.8594 96.1403 66.6706 96.2739 66.4266C96.4075 66.1768 96.4744 65.8893 96.4744 65.564C96.4744 65.2329 96.4075 64.9482 96.2739 64.7101C96.1403 64.4661 95.9544 64.2773 95.7163 64.1437C95.4839 64.0101 95.2196 63.9433 94.9234 63.9433C94.6271 63.9433 94.3628 64.0101 94.1304 64.1437C93.8981 64.2773 93.7122 64.4661 93.5728 64.7101C93.4333 64.9482 93.3636 65.2329 93.3636 65.564C93.3636 65.8893 93.4333 66.1768 93.5728 66.4266C93.7122 66.6706 93.8981 66.8594 94.1304 66.993C94.3628 67.1266 94.6271 67.1934 94.9234 67.1934ZM100.925 67.9253C100.541 67.9253 100.19 67.8382 99.8706 67.6639C99.5569 67.4838 99.3042 67.2195 99.1125 66.871C98.9266 66.5225 98.8337 66.0868 98.8337 65.564C98.8337 65.0412 98.9237 64.6055 99.1038 64.257C99.2897 63.9084 99.5394 63.647 99.8531 63.4727C100.173 63.2985 100.53 63.2113 100.925 63.2113C101.378 63.2113 101.779 63.3101 102.127 63.5076C102.476 63.7051 102.752 63.981 102.955 64.3354C103.158 64.6839 103.26 65.0934 103.26 65.564C103.26 66.0345 103.158 66.4469 102.955 66.8013C102.752 67.1556 102.476 67.4316 102.127 67.6291C101.779 67.8266 101.378 67.9253 100.925 67.9253ZM98.4764 69.5635V63.2549H99.278V64.5009L99.2258 65.5727L99.3129 66.6444V69.5635H98.4764ZM100.855 67.1934C101.151 67.1934 101.416 67.1266 101.648 66.993C101.886 66.8594 102.072 66.6706 102.206 66.4266C102.345 66.1768 102.415 65.8893 102.415 65.564C102.415 65.2329 102.345 64.9482 102.206 64.7101C102.072 64.4661 101.886 64.2773 101.648 64.1437C101.416 64.0101 101.151 63.9433 100.855 63.9433C100.565 63.9433 100.3 64.0101 100.062 64.1437C99.8299 64.2773 99.644 64.4661 99.5046 64.7101C99.371 64.9482 99.3042 65.2329 99.3042 65.564C99.3042 65.8893 99.371 66.1768 99.5046 66.4266C99.644 66.6706 99.8299 66.8594 100.062 66.993C100.3 67.1266 100.565 67.1934 100.855 67.1934ZM106.864 67.9253C106.481 67.9253 106.13 67.8382 105.81 67.6639C105.496 67.4838 105.244 67.2195 105.052 66.871C104.866 66.5225 104.773 66.0868 104.773 65.564C104.773 65.0412 104.863 64.6055 105.043 64.257C105.229 63.9084 105.479 63.647 105.793 63.4727C106.112 63.2985 106.469 63.2113 106.864 63.2113C107.317 63.2113 107.718 63.3101 108.067 63.5076C108.415 63.7051 108.691 63.981 108.895 64.3354C109.098 64.6839 109.2 65.0934 109.2 65.564C109.2 66.0345 109.098 66.4469 108.895 66.8013C108.691 67.1556 108.415 67.4316 108.067 67.6291C107.718 67.8266 107.317 67.9253 106.864 67.9253ZM104.416 69.5635V63.2549H105.218V64.5009L105.165 65.5727L105.252 66.6444V69.5635H104.416ZM106.795 67.1934C107.091 67.1934 107.355 67.1266 107.588 66.993C107.826 66.8594 108.012 66.6706 108.145 66.4266C108.285 66.1768 108.354 65.8893 108.354 65.564C108.354 65.2329 108.285 64.9482 108.145 64.7101C108.012 64.4661 107.826 64.2773 107.588 64.1437C107.355 64.0101 107.091 63.9433 106.795 63.9433C106.504 63.9433 106.24 64.0101 106.002 64.1437C105.769 64.2773 105.583 64.4661 105.444 64.7101C105.31 64.9482 105.244 65.2329 105.244 65.564C105.244 65.8893 105.31 66.1768 105.444 66.4266C105.583 66.6706 105.769 66.8594 106.002 66.993C106.24 67.1266 106.504 67.1934 106.795 67.1934ZM112.412 67.9253C111.918 67.9253 111.482 67.8237 111.105 67.6204C110.733 67.417 110.442 67.1382 110.233 66.7839C110.03 66.4295 109.928 66.0229 109.928 65.564C109.928 65.1051 110.027 64.6984 110.225 64.3441C110.428 63.9897 110.704 63.7138 111.052 63.5163C111.407 63.313 111.805 63.2113 112.246 63.2113C112.693 63.2113 113.088 63.3101 113.431 63.5076C113.774 63.7051 114.041 63.9839 114.233 64.3441C114.43 64.6984 114.529 65.1138 114.529 65.5901C114.529 65.625 114.526 65.6656 114.52 65.7121C114.52 65.7586 114.517 65.8021 114.512 65.8428H110.582V65.2416H114.076L113.736 65.4507C113.742 65.1544 113.681 64.8901 113.553 64.6578C113.425 64.4254 113.248 64.2453 113.022 64.1175C112.801 63.9839 112.542 63.9171 112.246 63.9171C111.956 63.9171 111.697 63.9839 111.471 64.1175C111.244 64.2453 111.067 64.4283 110.939 64.6665C110.811 64.8988 110.747 65.1661 110.747 65.4681V65.6075C110.747 65.9154 110.817 66.1913 110.957 66.4353C111.102 66.6735 111.302 66.8594 111.558 66.993C111.813 67.1266 112.107 67.1934 112.438 67.1934C112.711 67.1934 112.958 67.1469 113.178 67.054C113.405 66.961 113.603 66.8216 113.771 66.6357L114.233 67.176C114.024 67.4199 113.762 67.6058 113.449 67.7336C113.141 67.8614 112.795 67.9253 112.412 67.9253ZM115.691 67.873V63.2549H116.492V64.5096L116.414 64.196C116.542 63.8765 116.757 63.6325 117.059 63.464C117.361 63.2956 117.732 63.2113 118.174 63.2113V64.0217C118.139 64.0159 118.104 64.013 118.069 64.013C118.04 64.013 118.011 64.013 117.982 64.013C117.535 64.013 117.181 64.1466 116.919 64.4138C116.658 64.681 116.527 65.0673 116.527 65.5727V67.873H115.691Z" fill="white"></path>
                    </g>
                    <path d="M226.523 192.08C226.523 192.882 227.173 193.532 227.976 193.532C228.778 193.532 229.428 192.882 229.428 192.08C229.428 191.278 228.778 190.628 227.976 190.628C227.173 190.628 226.523 191.278 226.523 192.08ZM146.559 192.08H146.287V192.352H146.559V192.08ZM146.559 107.396H146.831V107.123H146.559V107.396ZM97.2734 107.396H97.0011V107.668H97.2734V107.396ZM95.8212 89.9688C95.8212 90.7708 96.4714 91.421 97.2734 91.421C98.0755 91.421 98.7257 90.7708 98.7257 89.9688C98.7257 89.1667 98.0755 88.5165 97.2734 88.5165C96.4714 88.5165 95.8212 89.1667 95.8212 89.9688ZM227.976 191.807H146.559V192.352H227.976V191.807ZM146.831 192.08V107.396H146.287V192.08H146.831ZM97.2734 107.668H146.559V107.123H97.2734V107.668ZM97.0011 89.9688V107.396H97.5457V89.9688H97.0011Z" fill="#222222"></path>
                    <g filter="url(#filter3_dd_8787_3884)">
                    <circle cx="98.91" cy="223.394" r="19.6053" fill="#222222"></circle>
                    </g>
                    <path d="M97.9619 224.343H105.728C105.729 225.871 105.278 227.366 104.432 228.639C103.586 229.913 102.384 230.908 100.975 231.502C99.5661 232.095 98.0135 232.259 96.5118 231.973C95.01 231.688 93.6259 230.966 92.5328 229.897C91.4397 228.828 90.6862 227.461 90.3668 225.966C90.0473 224.471 90.1761 222.915 90.737 221.493C91.2979 220.071 92.266 218.847 93.5199 217.972C94.7738 217.098 96.2579 216.613 97.7861 216.579L97.9619 224.343Z" fill="white"></path>
                    <path d="M100.054 222.448L99.8809 214.681C101.955 214.68 103.953 215.466 105.471 216.88C106.925 218.327 107.765 220.278 107.818 222.328L100.054 222.448Z" fill="white"></path>
                    <path d="M232.087 185.896C231.789 195.494 232.351 224.766 232.351 224.766L241.14 216.197H290.621C291.453 216.192 292.248 215.867 292.835 215.292C293.421 214.717 293.75 213.94 293.75 213.129V186.051C293.75 185.242 293.42 184.466 292.834 183.894C292.247 183.321 291.451 183 290.621 183H235.234C234.428 182.995 233.651 183.293 233.064 183.832C232.478 184.372 232.128 185.111 232.087 185.896Z" fill="#D9D9D9"></path>
                    <path d="M257.836 202.25C257.832 202.759 257.677 203.255 257.392 203.677C257.106 204.098 256.702 204.426 256.231 204.618C255.759 204.81 255.242 204.858 254.743 204.756C254.244 204.655 253.787 204.408 253.428 204.046C253.069 203.685 252.826 203.226 252.728 202.726C252.63 202.227 252.682 201.709 252.878 201.239C253.073 200.769 253.404 200.368 253.827 200.086C254.251 199.803 254.749 199.652 255.258 199.652C255.598 199.652 255.935 199.72 256.249 199.85C256.563 199.981 256.848 200.173 257.088 200.414C257.327 200.656 257.517 200.942 257.645 201.257C257.773 201.572 257.838 201.91 257.836 202.25Z" fill="#E13737"></path>
                    <path d="M266.344 202.23C266.343 202.741 266.192 203.24 265.908 203.665C265.624 204.089 265.22 204.42 264.748 204.614C264.275 204.809 263.756 204.859 263.255 204.757C262.755 204.656 262.295 204.409 261.936 204.046C261.576 203.684 261.332 203.223 261.235 202.721C261.137 202.22 261.191 201.701 261.389 201.23C261.587 200.76 261.921 200.358 262.347 200.077C262.774 199.797 263.274 199.649 263.785 199.652C264.123 199.652 264.457 199.719 264.769 199.849C265.08 199.979 265.363 200.169 265.601 200.409C265.839 200.648 266.027 200.933 266.154 201.245C266.282 201.558 266.346 201.893 266.344 202.23Z" fill="#E13737"></path>
                    <path d="M274.867 202.23C274.867 202.74 274.716 203.239 274.433 203.663C274.149 204.087 273.747 204.417 273.276 204.612C272.804 204.807 272.286 204.858 271.786 204.759C271.286 204.659 270.827 204.414 270.466 204.053C270.105 203.693 269.86 203.233 269.76 202.733C269.661 202.233 269.712 201.715 269.907 201.244C270.102 200.773 270.433 200.37 270.857 200.087C271.281 199.804 271.779 199.652 272.289 199.652C272.973 199.652 273.628 199.924 274.112 200.407C274.595 200.891 274.867 201.547 274.867 202.23Z" fill="#E13737"></path>
                    <g filter="url(#filter4_dd_8787_3884)">
                    <circle cx="78.9135" cy="21.9135" r="10.9135" fill="#EDECEC"></circle>
                    </g>
                    <path d="M73.9221 16.6732H83.8525C83.9925 16.6732 84.1059 16.7866 84.1059 16.9265V26.8569C84.1059 26.9969 83.9925 27.1103 83.8525 27.1103H73.9221C73.7822 27.1103 73.6688 26.9969 73.6688 26.8569V16.9265C73.6688 16.7866 73.7822 16.6732 73.9221 16.6732Z" fill="#EDECEC" stroke="#222222" stroke-width="0.454731"></path>
                    <path d="M82.1618 19.4414L81.6155 20.0605L79.7947 22.1508L79.0281 21.6319C78.8915 21.5427 78.7149 21.4243 78.5893 21.3424L78.5583 21.3788C77.748 22.3256 77.0306 23.1723 76.519 23.7841L75.9199 24.5125M82.1618 19.4414L80.4777 20.3065M82.1618 19.4414L81.6155 21.2142" stroke="#222222" stroke-width="0.454731"></path>
                    <g style="mix-blend-mode:luminosity" filter="url(#filter5_d_8787_3884)">
                    <circle cx="214.363" cy="131.904" r="32.6755" fill="#222222"></circle>
                    </g>
                    <g clip-path="url(#clip1_8787_3884)">
                    <circle cx="214.139" cy="123.568" r="9.06822" stroke="white"></circle>
                    <mask id="path-21-inside-2_8787_3884" fill="white">
                    <path d="M195 152.263C195 147.188 197.016 142.321 200.605 138.732C204.194 135.143 209.061 133.127 214.136 133.127C219.212 133.127 224.079 135.143 227.668 138.732C231.257 142.321 233.273 147.188 233.273 152.263L214.136 152.263L195 152.263Z"></path>
                    </mask>
                    <path d="M195 152.263C195 147.188 197.016 142.321 200.605 138.732C204.194 135.143 209.061 133.127 214.136 133.127C219.212 133.127 224.079 135.143 227.668 138.732C231.257 142.321 233.273 147.188 233.273 152.263L214.136 152.263L195 152.263Z" stroke="white" stroke-width="2" mask="url(#path-21-inside-2_8787_3884)"></path>
                    </g>
                    <g style="mix-blend-mode:luminosity" filter="url(#filter6_d_8787_3884)">
                    <circle cx="245.406" cy="54.5721" r="26.1404" fill="white"></circle>
                    </g>
                    <g clip-path="url(#clip2_8787_3884)">
                    <circle cx="244.67" cy="48.8344" r="6.33445" stroke="#E13737"></circle>
                    <mask id="path-24-inside-3_8787_3884" fill="white">
                    <path d="M231 69.331C231 65.7058 232.44 62.229 235.004 59.6656C237.567 57.1022 241.044 55.6621 244.669 55.6621C248.294 55.6621 251.771 57.1022 254.334 59.6656C256.898 62.229 258.338 65.7058 258.338 69.331L244.669 69.331L231 69.331Z"></path>
                    </mask>
                    <path d="M231 69.331C231 65.7058 232.44 62.229 235.004 59.6656C237.567 57.1022 241.044 55.6621 244.669 55.6621C248.294 55.6621 251.771 57.1022 254.334 59.6656C256.898 62.229 258.338 65.7058 258.338 69.331L244.669 69.331L231 69.331Z" stroke="#E13737" stroke-width="2" mask="url(#path-24-inside-3_8787_3884)"></path>
                    </g>
                    <defs>
                    <filter id="filter0_d_8787_3884" x="80.9357" y="15.9047" width="180.814" height="222.993" filterUnits="userSpaceOnUse" color-interpolation-filters="sRGB">
                    <feFlood flood-opacity="0" result="BackgroundImageFix"></feFlood>
                    <feColorMatrix in="SourceAlpha" type="matrix" values="0 0 0 0 0 0 0 0 0 0 0 0 0 0 0 0 0 0 127 0" result="hardAlpha"></feColorMatrix>
                    <feOffset dy="2.72296"></feOffset>
                    <feGaussianBlur stdDeviation="8.16888"></feGaussianBlur>
                    <feComposite in2="hardAlpha" operator="out"></feComposite>
                    <feColorMatrix type="matrix" values="0 0 0 0 0 0 0 0 0 0 0 0 0 0 0 0 0 0 0.15 0"></feColorMatrix>
                    <feBlend mode="normal" in2="BackgroundImageFix" result="effect1_dropShadow_8787_3884"></feBlend>
                    <feBlend mode="normal" in="SourceGraphic" in2="effect1_dropShadow_8787_3884" result="shape"></feBlend>
                    </filter>
                    <filter id="filter1_d_8787_3884" x="0.649298" y="93.2266" width="109.528" height="109.527" filterUnits="userSpaceOnUse" color-interpolation-filters="sRGB">
                    <feFlood flood-opacity="0" result="BackgroundImageFix"></feFlood>
                    <feColorMatrix in="SourceAlpha" type="matrix" values="0 0 0 0 0 0 0 0 0 0 0 0 0 0 0 0 0 0 127 0" result="hardAlpha"></feColorMatrix>
                    <feOffset dy="2.57734"></feOffset>
                    <feGaussianBlur stdDeviation="14.1754"></feGaussianBlur>
                    <feComposite in2="hardAlpha" operator="out"></feComposite>
                    <feColorMatrix type="matrix" values="0 0 0 0 0 0 0 0 0 0 0 0 0 0 0 0 0 0 0.35 0"></feColorMatrix>
                    <feBlend mode="normal" in2="BackgroundImageFix" result="effect1_dropShadow_8787_3884"></feBlend>
                    <feBlend mode="normal" in="SourceGraphic" in2="effect1_dropShadow_8787_3884" result="shape"></feBlend>
                    </filter>
                    <filter id="filter2_d_8787_3884" x="29.8416" y="35.0001" width="127.243" height="64.1918" filterUnits="userSpaceOnUse" color-interpolation-filters="sRGB">
                    <feFlood flood-opacity="0" result="BackgroundImageFix"></feFlood>
                    <feColorMatrix in="SourceAlpha" type="matrix" values="0 0 0 0 0 0 0 0 0 0 0 0 0 0 0 0 0 0 127 0" result="hardAlpha"></feColorMatrix>
                    <feOffset dy="2.72296"></feOffset>
                    <feGaussianBlur stdDeviation="9.53036"></feGaussianBlur>
                    <feComposite in2="hardAlpha" operator="out"></feComposite>
                    <feColorMatrix type="matrix" values="0 0 0 0 0 0 0 0 0 0 0 0 0 0 0 0 0 0 0.15 0"></feColorMatrix>
                    <feBlend mode="normal" in2="BackgroundImageFix" result="effect1_dropShadow_8787_3884"></feBlend>
                    <feBlend mode="normal" in="SourceGraphic" in2="effect1_dropShadow_8787_3884" result="shape"></feBlend>
                    </filter>
                    <filter id="filter3_dd_8787_3884" x="55.3426" y="177.649" width="87.135" height="91.4913" filterUnits="userSpaceOnUse" color-interpolation-filters="sRGB">
                    <feFlood flood-opacity="0" result="BackgroundImageFix"></feFlood>
                    <feColorMatrix in="SourceAlpha" type="matrix" values="0 0 0 0 0 0 0 0 0 0 0 0 0 0 0 0 0 0 127 0" result="hardAlpha"></feColorMatrix>
                    <feOffset dy="2.17837"></feOffset>
                    <feGaussianBlur stdDeviation="11.981"></feGaussianBlur>
                    <feComposite in2="hardAlpha" operator="out"></feComposite>
                    <feColorMatrix type="matrix" values="0 0 0 0 0 0 0 0 0 0 0 0 0 0 0 0 0 0 0.15 0"></feColorMatrix>
                    <feBlend mode="normal" in2="BackgroundImageFix" result="effect1_dropShadow_8787_3884"></feBlend>
                    <feColorMatrix in="SourceAlpha" type="matrix" values="0 0 0 0 0 0 0 0 0 0 0 0 0 0 0 0 0 0 127 0" result="hardAlpha"></feColorMatrix>
                    <feOffset dy="-2.17837"></feOffset>
                    <feGaussianBlur stdDeviation="11.981"></feGaussianBlur>
                    <feComposite in2="hardAlpha" operator="out"></feComposite>
                    <feColorMatrix type="matrix" values="0 0 0 0 0 0 0 0 0 0 0 0 0 0 0 0 0 0 0.25 0"></feColorMatrix>
                    <feBlend mode="normal" in2="effect1_dropShadow_8787_3884" result="effect2_dropShadow_8787_3884"></feBlend>
                    <feBlend mode="normal" in="SourceGraphic" in2="effect2_dropShadow_8787_3884" result="shape"></feBlend>
                    </filter>
                    <filter id="filter4_dd_8787_3884" x="57.9959" y="0.0864604" width="41.8343" height="43.6542" filterUnits="userSpaceOnUse" color-interpolation-filters="sRGB">
                    <feFlood flood-opacity="0" result="BackgroundImageFix"></feFlood>
                    <feColorMatrix in="SourceAlpha" type="matrix" values="0 0 0 0 0 0 0 0 0 0 0 0 0 0 0 0 0 0 127 0" result="hardAlpha"></feColorMatrix>
                    <feOffset dy="0.909462"></feOffset>
                    <feGaussianBlur stdDeviation="5.00204"></feGaussianBlur>
                    <feComposite in2="hardAlpha" operator="out"></feComposite>
                    <feColorMatrix type="matrix" values="0 0 0 0 0 0 0 0 0 0 0 0 0 0 0 0 0 0 0.15 0"></feColorMatrix>
                    <feBlend mode="normal" in2="BackgroundImageFix" result="effect1_dropShadow_8787_3884"></feBlend>
                    <feColorMatrix in="SourceAlpha" type="matrix" values="0 0 0 0 0 0 0 0 0 0 0 0 0 0 0 0 0 0 127 0" result="hardAlpha"></feColorMatrix>
                    <feOffset dy="-0.909462"></feOffset>
                    <feGaussianBlur stdDeviation="5.00204"></feGaussianBlur>
                    <feComposite in2="hardAlpha" operator="out"></feComposite>
                    <feColorMatrix type="matrix" values="0 0 0 0 0 0 0 0 0 0 0 0 0 0 0 0 0 0 0.25 0"></feColorMatrix>
                    <feBlend mode="normal" in2="effect1_dropShadow_8787_3884" result="effect2_dropShadow_8787_3884"></feBlend>
                    <feBlend mode="normal" in="SourceGraphic" in2="effect2_dropShadow_8787_3884" result="shape"></feBlend>
                    </filter>
                    <filter id="filter5_d_8787_3884" x="159.904" y="82.8908" width="108.919" height="108.918" filterUnits="userSpaceOnUse" color-interpolation-filters="sRGB">
                    <feFlood flood-opacity="0" result="BackgroundImageFix"></feFlood>
                    <feColorMatrix in="SourceAlpha" type="matrix" values="0 0 0 0 0 0 0 0 0 0 0 0 0 0 0 0 0 0 127 0" result="hardAlpha"></feColorMatrix>
                    <feOffset dy="5.44592"></feOffset>
                    <feGaussianBlur stdDeviation="10.8918"></feGaussianBlur>
                    <feComposite in2="hardAlpha" operator="out"></feComposite>
                    <feColorMatrix type="matrix" values="0 0 0 0 0 0 0 0 0 0 0 0 0 0 0 0 0 0 0.35 0"></feColorMatrix>
                    <feBlend mode="normal" in2="BackgroundImageFix" result="effect1_dropShadow_8787_3884"></feBlend>
                    <feBlend mode="normal" in="SourceGraphic" in2="effect1_dropShadow_8787_3884" result="shape"></feBlend>
                    </filter>
                    <filter id="filter6_d_8787_3884" x="197.482" y="12.0939" width="95.8486" height="95.8481" filterUnits="userSpaceOnUse" color-interpolation-filters="sRGB">
                    <feFlood flood-opacity="0" result="BackgroundImageFix"></feFlood>
                    <feColorMatrix in="SourceAlpha" type="matrix" values="0 0 0 0 0 0 0 0 0 0 0 0 0 0 0 0 0 0 127 0" result="hardAlpha"></feColorMatrix>
                    <feOffset dy="5.44592"></feOffset>
                    <feGaussianBlur stdDeviation="10.8918"></feGaussianBlur>
                    <feComposite in2="hardAlpha" operator="out"></feComposite>
                    <feColorMatrix type="matrix" values="0 0 0 0 0 0 0 0 0 0 0 0 0 0 0 0 0 0 0.35 0"></feColorMatrix>
                    <feBlend mode="normal" in2="BackgroundImageFix" result="effect1_dropShadow_8787_3884"></feBlend>
                    <feBlend mode="normal" in="SourceGraphic" in2="effect1_dropShadow_8787_3884" result="shape"></feBlend>
                    </filter>
                    <linearGradient id="paint0_linear_8787_3884" x1="124.94" y1="223.133" x2="124.94" y2="22.6734" gradientUnits="userSpaceOnUse">
                    <stop stop-color="#EAEAEA"></stop>
                    <stop offset="0.505" stop-color="white"></stop>
                    <stop offset="1" stop-color="#EAEAEA"></stop>
                    </linearGradient>
                    <linearGradient id="paint1_linear_8787_3884" x1="124.94" y1="223.133" x2="124.94" y2="22.6734" gradientUnits="userSpaceOnUse">
                    <stop stop-color="#EAEAEA"></stop>
                    <stop offset="0.505" stop-color="white"></stop>
                    <stop offset="1" stop-color="#EAEAEA"></stop>
                    </linearGradient>
                    <linearGradient id="paint2_linear_8787_3884" x1="124.535" y1="219.837" x2="124.535" y2="23.8614" gradientUnits="userSpaceOnUse">
                    <stop stop-color="#EAEAEA"></stop>
                    <stop offset="0.505" stop-color="white"></stop>
                    <stop offset="1" stop-color="#EAEAEA"></stop>
                    </linearGradient>
                    <clipPath id="clip0_8787_3884">
                    <rect width="27" height="25" fill="white" transform="translate(42 133)"></rect>
                    </clipPath>
                    <clipPath id="clip1_8787_3884">
                    <rect width="37.8" height="35" fill="white" transform="translate(195 114)"></rect>
                    </clipPath>
                    <clipPath id="clip2_8787_3884">
                    <rect width="27" height="25" fill="white" transform="translate(231 42)"></rect>
                    </clipPath>
                    </defs>
                </svg>