<!--?xml version="1.0" standalone="no"?-->
              <svg id="sw-js-blob-svg" viewBox="0 0 100 100" xmlns="http://www.w3.org/2000/svg" version="1.1">
                    <defs> 
                        <linearGradient id="sw-gradient" x1="0" x2="1" y1="1" y2="0">
                            <stop id="stop1" stop-color="rgba(243.901, 0, 5.46, 1)" offset="0%"></stop>
                            <stop id="stop2" stop-color="rgba(101.564, 110.008, 237.07, 1)" offset="100%"></stop>
                        </linearGradient>
                    </defs>
                <path fill="url(#sw-gradient)" d="M18.9,-33.2C24.8,-29.4,30.1,-24.9,34.2,-19.2C38.4,-13.6,41.4,-6.8,41.7,0.2C42,7.2,39.6,14.3,35.8,20.5C31.9,26.6,26.6,31.7,20.4,35.7C14.2,39.8,7.1,42.9,-0.1,43C-7.3,43.2,-14.6,40.6,-20.1,36.1C-25.6,31.7,-29.4,25.4,-33.5,19.1C-37.7,12.8,-42.2,6.4,-43.2,-0.6C-44.2,-7.5,-41.6,-15,-37.7,-21.7C-33.8,-28.4,-28.5,-34.2,-21.9,-37.7C-15.4,-41.1,-7.7,-42.1,-0.6,-41C6.5,-40,13,-36.9,18.9,-33.2Z" width="100%" height="100%" transform="translate(50 50)" stroke-width="0" style="transition: all 0.3s ease 0s;" stroke="url(#sw-gradient)"></path>
              </svg>