<svg xmlns="http://www.w3.org/2000/svg" xmlns:xlink="http://www.w3.org/1999/xlink" version="1.1" id="Layer_1" x="0px" y="0px" width="434.6px" height="145.1px" viewBox="0 0 434.6 145.1" enable-background="new 0 0 434.6 145.1" xml:space="preserve">
<rect x="-1100.9" y="-71.3" fill="#BA0035" width="154.6" height="1125.3"/>
<g>
	<g>
		<path fill="#999999" d="M38.2,98.8v1.6h-5.9v13h-1.9V98.8H38.2z"/>
		<path fill="#999999" d="M47.1,108c0,3.9-2.7,5.6-5.2,5.6c-2.8,0-5-2.1-5-5.4c0-3.5,2.3-5.6,5.2-5.6    C45.1,102.7,47.1,104.8,47.1,108z M38.8,108.1c0,2.3,1.3,4,3.2,4c1.8,0,3.2-1.7,3.2-4.1c0-1.8-0.9-4-3.1-4    C39.8,104.1,38.8,106.2,38.8,108.1z"/>
		<path fill="#999999" d="M56.9,113c-0.5,0.3-1.6,0.6-3,0.6c-3.2,0-5.2-2.2-5.2-5.4c0-3.2,2.2-5.6,5.6-5.6c1.1,0,2.1,0.3,2.6,0.5    l-0.4,1.5c-0.5-0.3-1.2-0.5-2.2-0.5c-2.4,0-3.7,1.8-3.7,4c0,2.4,1.6,3.9,3.6,3.9c1.1,0,1.8-0.3,2.3-0.5L56.9,113z"/>
		<path fill="#999999" d="M60,102.9l2.3,6.2c0.2,0.7,0.5,1.5,0.7,2.1h0c0.2-0.6,0.4-1.4,0.7-2.2l2.1-6.1h2l-2.9,7.5    c-1.4,3.6-2.3,5.4-3.6,6.5c-0.9,0.8-1.9,1.1-2.3,1.2l-0.5-1.6c0.5-0.2,1.1-0.5,1.7-0.9c0.5-0.4,1.2-1.1,1.6-2.1    c0.1-0.2,0.2-0.3,0.2-0.5c0-0.1,0-0.3-0.1-0.5l-3.9-9.6H60z"/>
		<path fill="#999999" d="M77,102.9v9l1.1,0l-0.1,4.7h-1.5l-0.1-3.3h-7.2l-0.1,3.3h-1.5l-0.1-4.7l0.9,0c0.5-0.7,0.8-1.4,1-2.1    c0.4-1.3,0.6-2.7,0.6-4.2v-2.7H77z M71.7,106.1c0,1.4-0.2,2.7-0.5,3.9c-0.2,0.7-0.5,1.4-0.8,1.9h4.8v-7.6h-3.4V106.1z"/>
		<path fill="#999999" d="M87.6,110.8c0,0.9,0,1.8,0.2,2.5h-1.7l-0.2-1.3h-0.1c-0.6,0.8-1.7,1.6-3.2,1.6c-2.1,0-3.2-1.5-3.2-3    c0-2.5,2.2-3.9,6.3-3.9v-0.2c0-0.9-0.2-2.4-2.4-2.4c-1,0-2,0.3-2.7,0.8l-0.4-1.3c0.9-0.6,2.1-0.9,3.4-0.9c3.2,0,4,2.2,4,4.3V110.8    z M85.8,108c-2.1,0-4.4,0.3-4.4,2.4c0,1.2,0.8,1.8,1.8,1.8c1.4,0,2.2-0.9,2.5-1.8c0.1-0.2,0.1-0.4,0.1-0.6V108z"/>
		<path fill="#999999" d="M90.6,106.3c0-1.3,0-2.4-0.1-3.4h1.7l0.1,1.8h0c0.8-1.3,2-2,3.7-2c2.5,0,4.4,2.1,4.4,5.3    c0,3.8-2.3,5.6-4.8,5.6c-1.4,0-2.6-0.6-3.2-1.6h0v5.7h-1.9V106.3z M92.5,109.1c0,0.3,0,0.5,0.1,0.8c0.3,1.3,1.5,2.2,2.9,2.2    c2,0,3.2-1.6,3.2-4c0-2.1-1.1-3.9-3.1-3.9c-1.3,0-2.5,0.9-2.9,2.4c-0.1,0.2-0.1,0.5-0.1,0.8V109.1z"/>
		<path fill="#999999" d="M110.2,113c-0.5,0.3-1.6,0.6-3,0.6c-3.2,0-5.2-2.2-5.2-5.4c0-3.2,2.2-5.6,5.6-5.6c1.1,0,2.1,0.3,2.6,0.5    l-0.4,1.5c-0.5-0.3-1.2-0.5-2.2-0.5c-2.4,0-3.7,1.8-3.7,4c0,2.4,1.6,3.9,3.6,3.9c1.1,0,1.8-0.3,2.3-0.5L110.2,113z"/>
		<path fill="#999999" d="M119.7,102.9v1.5h-3.3v8.9h-1.9v-8.9h-3.3v-1.5H119.7z"/>
		<path fill="#999999" d="M121.2,103c0.7-0.1,2.1-0.2,3.3-0.2c1.8,0,4.6,0.3,4.6,2.6c0,1.3-1,2.1-2.2,2.4v0c1.5,0.2,2.7,1.1,2.7,2.6    c0,2.7-3.5,3.1-5.5,3.1c-1.2,0-2.4-0.1-2.9-0.1V103z M123,112.1c0.5,0.1,0.9,0.1,1.5,0.1c1.3,0,3.2-0.3,3.2-1.8    c0-1.5-1.5-1.8-3.3-1.8H123V112.1z M123.1,107.3h1.4c1.4,0,2.9-0.4,2.9-1.6c0-1-0.9-1.5-2.8-1.5c-0.6,0-1,0-1.5,0.1V107.3z"/>
		<path fill="#999999" d="M141.4,108c0,3.9-2.7,5.6-5.2,5.6c-2.8,0-5-2.1-5-5.4c0-3.5,2.3-5.6,5.2-5.6    C139.4,102.7,141.4,104.8,141.4,108z M133.2,108.1c0,2.3,1.3,4,3.2,4c1.8,0,3.2-1.7,3.2-4.1c0-1.8-0.9-4-3.1-4    C134.1,104.1,133.2,106.2,133.2,108.1z"/>
		<path fill="#999999" d="M144.5,113.6c-0.7,0-1.3-0.6-1.3-1.4c0-0.8,0.5-1.4,1.3-1.4c0.8,0,1.3,0.6,1.3,1.4    C145.9,113,145.4,113.6,144.5,113.6L144.5,113.6z"/>
		<path fill="#999999" d="M160.8,98.8v1.6h-6.3v3.9c0.5-0.1,1.3-0.1,1.8-0.1c1.4,0,2.7,0.3,3.8,1c1.1,0.7,1.9,1.9,1.9,3.6    c0,1.4-0.5,2.4-1.2,3.2c-1.2,1.2-3.2,1.6-5.1,1.6c-1.3,0-2.3-0.1-2.9-0.2V98.8H160.8z M154.5,111.9c0.4,0.1,0.9,0.1,1.6,0.1    c1.2,0,2.4-0.4,3.1-1.1c0.5-0.5,0.8-1.2,0.8-2.1c0-1.1-0.5-1.9-1.2-2.4c-0.8-0.5-1.7-0.7-2.8-0.7c-0.4,0-1,0-1.5,0.1V111.9z"/>
		<path fill="#999999" d="M166,102.9v4.4c0,1.7,0,2.7-0.1,4.2h0.1c0.6-1.3,1-2,1.7-3.2l3.3-5.4h2.2v10.5h-1.8v-4.4    c0-1.7,0-2.6,0.1-4.3h-0.1c-0.7,1.3-1.1,2.2-1.7,3.2c-1,1.6-2.1,3.6-3.3,5.5h-2.2v-10.5H166z"/>
		<path fill="#999999" d="M177,107.3h0.9c1.6,0,2.7-0.7,2.7-1.7c0-0.9-0.8-1.5-2-1.5c-0.8,0-1.8,0.3-2.5,0.7l-0.5-1.2    c1.1-0.6,2.3-1,3.5-1c1.6,0,3.5,0.7,3.5,2.7c0,1.3-1.2,2.1-2.4,2.4v0c1.6,0.1,2.9,1.1,2.9,2.6c0,2.3-2.3,3.1-4.5,3.1    c-1.2,0-2.5-0.3-3.4-0.8l0.5-1.3c0.8,0.4,1.8,0.7,2.8,0.7c1.6,0,2.6-0.8,2.6-1.8c0-1.4-1.5-1.8-3-1.8h-1V107.3z"/>
		<path fill="#999999" d="M187.1,102.9v4.2h5v-4.2h1.9v10.5h-1.9v-4.7h-5v4.7h-1.9v-10.5H187.1z"/>
		<path fill="#999999" d="M198.1,108.5c0,2.6,1.7,3.6,3.6,3.6c1.4,0,2.2-0.2,2.9-0.5l0.3,1.4c-0.7,0.3-1.8,0.7-3.5,0.7    c-3.2,0-5.1-2.1-5.1-5.3c0-3.2,1.9-5.6,4.9-5.6c3.4,0,4.3,3,4.3,4.9c0,0.4,0,0.7-0.1,0.9H198.1z M203.6,107.1    c0-1.2-0.5-3.1-2.6-3.1c-1.9,0-2.8,1.8-2.9,3.1H203.6z"/>
		<path fill="#999999" d="M215.2,113c-0.5,0.3-1.6,0.6-3,0.6c-3.2,0-5.2-2.2-5.2-5.4c0-3.2,2.2-5.6,5.6-5.6c1.1,0,2.1,0.3,2.6,0.5    l-0.4,1.5c-0.5-0.3-1.2-0.5-2.2-0.5c-2.4,0-3.7,1.8-3.7,4c0,2.4,1.6,3.9,3.6,3.9c1.1,0,1.8-0.3,2.3-0.5L215.2,113z"/>
		<path fill="#999999" d="M218.1,113.6c-0.7,0-1.3-0.6-1.3-1.4c0-0.8,0.5-1.4,1.3-1.4c0.8,0,1.3,0.6,1.3,1.4    C219.4,113,218.9,113.6,218.1,113.6L218.1,113.6z"/>
		<path fill="#999999" d="M228,98.8v6.1c0,2.3,0,4.2-0.2,6.2l0,0c0.7-1.5,1.6-3.1,2.7-4.8l4.7-7.5h1.9v14.6h-1.8v-6.2    c0-2.4,0-4.1,0.2-5.9l-0.1,0c-0.7,1.6-1.7,3.3-2.7,4.9l-4.6,7.2h-2V98.8H228z"/>
		<path fill="#999999" d="M243,100.4h-4.4v-1.6h10.8v1.6h-4.4v13H243V100.4z"/>
	</g>
	<g>
		<path fill="#999999" d="M12.8,31.9h46.5v10.5H42.2V90H30.3V42.4H12.8V31.9z"/>
	</g>
	<g>
		<path fill="#999999" d="M58.7,90l20.6-58.1h13.6L113.1,90h-12.8l-4.1-12.2H75.1L71.2,90H58.7z M78.6,68.1h14.6l-7.3-22.9    L78.6,68.1z"/>
		<path fill="#999999" d="M120.7,31.9h22.6c6.3,0,11.1,0.8,14.3,2.4c4.2,2,7.3,5.4,9.2,10.2c1.9,4.8,2.9,9.9,2.9,15.4    c0,4.4-0.5,8.4-1.6,12.1c-1.1,3.7-2.7,6.9-4.7,9.5c-2,2.7-4.4,4.8-7.3,6.2c-3.2,1.5-7.8,2.3-13.7,2.3h-21.7V31.9z M132.7,42.4    v37.1h9.4c2.4,0,4.2-0.1,5.4-0.3c1.2-0.2,2.4-0.7,3.5-1.5c2.1-1.4,3.7-3.6,4.8-6.6c1.1-3,1.6-6.6,1.6-10.6    c0-6.2-1.1-10.8-3.4-13.8c-1.1-1.5-2.6-2.6-4.4-3.3c-1.8-0.6-4.3-1-7.5-1H132.7z"/>
		<path fill="#999999" d="M174.7,31.9h12.8l9.9,33c0.7,2.4,1.2,4.3,1.5,5.9c0.4,1.5,0.8,3.2,1.3,5c0.5-1.8,1-3.9,1.6-6.3    c0.6-2.3,1-3.9,1.1-4.6l10.5-33h12.2L205.4,90h-11.2L174.7,31.9z"/>
		<path fill="#999999" d="M233.5,31.9h11.9V90h-11.9V31.9z"/>
		<path fill="#999999" d="M255.2,71.8h11.5c0.5,2.2,1.3,4,2.3,5.4c1.1,1.5,2.5,2.5,4.1,3.1c1.6,0.7,3.7,1,6.3,1    c3.3,0,5.9-0.6,7.9-1.9c1.9-1.2,2.9-2.8,2.9-4.9c0-2.1-1.6-3.7-4.8-4.9l-17.8-6.9c-7.5-2.8-11.2-7.6-11.2-14.4    c0-5.3,1.9-9.6,5.8-12.9c3.8-3.2,9-4.8,15.6-4.8c7.1,0,12.6,1.6,16.5,4.9c3.8,3.3,5.9,7.9,6.1,13.9h-11.6    c-0.5-3.1-1.6-5.4-3.4-6.9c-1.8-1.5-4.2-2.2-7.4-2.2c-2.9,0-5.2,0.6-7,1.9c-1.8,1.3-2.8,2.9-2.8,4.8c0,1.9,1.3,3.4,3.9,4.4    l18.2,6.9c3.9,1.5,6.9,3.3,8.9,5.4c2,2.1,3,5.1,3,9.1c0,2.7-0.6,5.3-1.9,7.7c-1.2,2.5-3.1,4.6-5.4,6.3c-2,1.4-4.2,2.4-6.7,3.1    c-2.4,0.7-5.4,1-8.8,1c-9.6,0-16.5-2.8-20.6-8.4c-1.1-1.5-1.8-3-2.3-4.5C255.9,76.8,255.6,74.7,255.2,71.8z"/>
		<path fill="#999999" d="M312.2,31.9H354v10.5h-29.9v12.3h27.3v9.8h-27.3v14.9h31.1V90h-43V31.9z"/>
		<path fill="#999999" d="M366.9,31.9h25.6c4.2,0,7.3,0.2,9.4,0.6c2,0.5,3.8,1.4,5.4,2.7c4,3,6,7.5,6,13.4c0,3.3-0.6,5.9-1.8,7.8    c-1.3,2-3.4,3.8-6.5,5.6c2.3,1,3.8,2.1,4.6,3.2c1,1.3,1.6,2.9,1.8,4.8c0.2,2,0.4,4.5,0.4,7.6c0.1,0.1,0.1,0.1,0.2,0.2    c0,0.1,0,0.2,0,0.3c0,2.9,0.2,5.3,0.5,7.2c0.3,2,1,3.5,2,4.6h-13.2c-0.8-2.4-1.2-5.5-1.3-9.2c-0.1-4.1-0.3-7-0.4-8.6    c-0.2-1.5-1-2.7-2.3-3.7c-1.4-1-3.8-1.5-7.1-1.5h-11.1v23h-11.9V31.9z M378.9,42.4v14.7h11.4c4.1,0,7-0.5,8.5-1.5    c1.5-1,2.3-3,2.3-5.9c0-2.8-0.8-4.8-2.3-5.8c-1.5-1-4.4-1.5-8.5-1.5H378.9z"/>
	</g>
</g>
</svg>