<svg xmlns="http://www.w3.org/2000/svg" width="87" height="53" viewBox="0 0 87 53" fill="none">
<path d="M20.0413 20.7655L4.66329 15.0878L8.95467 28.5242L0.267578 30.0401L12.0011 42.1535L12.8705 52L24.3397 44.2413L39.5925 48.7822L33.9449 34.5809L43.0701 27.5802H32.7625L32.1087 13L20.0413 20.7655Z" fill="white"/>
<path d="M15.541 52.8235C15.4993 52.8235 15.4576 52.8098 15.4159 52.7825C15.3742 52.7484 15.3394 52.7007 15.3325 52.6529L12.3848 33.7498C12.3709 33.6406 12.4473 33.5383 12.5586 33.5179C12.6698 33.5042 12.7741 33.5792 12.795 33.6884L15.7079 52.3937L22.6878 51.3432C22.5418 50.0811 22.8825 48.8259 23.6542 47.7958C24.4676 46.7112 25.6633 46.0017 27.019 45.797C29.7512 45.3877 32.3165 47.1819 32.8379 49.8219L39.8179 48.7713L37.9408 36.7377C37.9269 36.6286 38.0034 36.5263 38.1146 36.5058C40.6869 36.117 42.4666 33.7498 42.0704 31.2257C41.8826 29.9978 41.2152 28.92 40.2002 28.19C39.1852 27.4601 37.9338 27.1531 36.6894 27.3441C36.5782 27.3578 36.4739 27.2828 36.453 27.1736L35.2851 19.6697L11.1751 23.2852L12.2457 30.1411C12.2596 30.2502 12.1832 30.3526 12.0719 30.373C11.9607 30.3935 11.8564 30.3116 11.8356 30.2025L10.7371 23.1488C10.7302 23.0942 10.7441 23.0396 10.7719 22.9987C10.8066 22.9578 10.8553 22.9236 10.904 22.9168L35.4241 19.2399C35.5354 19.2262 35.6396 19.3013 35.6605 19.4104L36.8285 26.9144C38.1146 26.7711 39.3938 27.1054 40.4436 27.8626C41.5489 28.6608 42.272 29.8341 42.4805 31.1643C42.8977 33.8453 41.0693 36.3625 38.3788 36.8673L40.2559 48.9078C40.2628 48.9623 40.2489 49.0169 40.2211 49.0579C40.1863 49.0988 40.1377 49.1329 40.089 49.1397L32.7058 50.2448C32.5946 50.2653 32.4903 50.1835 32.4695 50.0743C32.0732 47.5502 29.6608 45.8039 27.0816 46.1927C25.8371 46.3769 24.7387 47.0318 23.9879 48.0278C23.237 49.0238 22.9312 50.2517 23.1258 51.4728C23.1328 51.5273 23.1189 51.5819 23.091 51.6228C23.0563 51.6638 23.0076 51.6979 22.959 51.7047L15.5758 52.8098C15.5619 52.8235 15.5549 52.8235 15.541 52.8235Z" fill="black"/>
<path d="M20.5327 43.8189C20.4701 43.8189 20.4076 43.7916 20.3659 43.737C20.3172 43.6756 20.3102 43.5937 20.345 43.5323L24.1965 35.6396L18.1203 29.2407C18.0717 29.1862 18.0508 29.1043 18.0786 29.0361C18.1064 28.9679 18.169 28.9133 18.2455 28.8996L30.2726 27.0987C30.3422 27.085 30.4256 27.1192 30.4673 27.1806C30.516 27.2419 30.5229 27.3238 30.4882 27.3852L26.6367 35.278L32.7128 41.6768C32.7685 41.7314 32.7824 41.8133 32.7546 41.8815C32.7267 41.9497 32.6642 42.0043 32.5877 42.0179L20.5605 43.8189C20.5536 43.8189 20.5397 43.8189 20.5327 43.8189ZM18.6834 29.2407L24.5928 35.4622C24.6553 35.5304 24.6692 35.6259 24.6206 35.7009L20.8873 43.355L32.1428 41.67L29.1186 38.4842L26.2335 35.4485C26.1778 35.3871 26.1639 35.2985 26.1987 35.2234L29.9459 27.5557L18.6834 29.2407Z" fill="black"/>
<path d="M30.4947 27.2621L30.3001 26.0205C30.2931 25.9659 30.2653 25.9182 30.2166 25.8909C30.1749 25.8568 30.1124 25.8431 30.0637 25.8568L18.0365 27.6577C17.9253 27.6714 17.8488 27.7805 17.8627 27.8897L18.0574 29.1312C18.0643 29.1858 18.0921 29.2336 18.1408 29.2609C18.1756 29.2881 18.2173 29.3018 18.2659 29.3018C18.2798 29.3018 18.2868 29.3018 18.2937 29.3018L30.3209 27.5008C30.4391 27.4804 30.5156 27.378 30.4947 27.2621Z" fill="black"/>
<path d="M32.9566 43.0209L32.7619 41.7793C32.7549 41.7247 32.7271 41.677 32.6785 41.6497C32.6368 41.6156 32.5811 41.6019 32.5255 41.6156L20.4983 43.4165C20.4427 43.4233 20.3941 43.4506 20.3663 43.4984C20.3315 43.5393 20.3176 43.5939 20.3315 43.6485L20.5262 44.89C20.5401 44.9924 20.6304 45.0606 20.7278 45.0606C20.7417 45.0606 20.7486 45.0606 20.7625 45.0606L32.7897 43.2596C32.894 43.2392 32.9705 43.1368 32.9566 43.0209Z" fill="black"/>
<path d="M26.0524 31.1098C26.0246 31.1098 25.9968 31.103 25.9689 31.0893C25.8647 31.0416 25.816 30.9256 25.8647 30.8233L26.4625 29.4998C26.5112 29.3975 26.6294 29.3498 26.7337 29.3975C26.838 29.4453 26.8866 29.5612 26.838 29.6636L26.2401 30.987C26.2053 31.062 26.1288 31.1098 26.0524 31.1098Z" fill="white"/>
<path d="M24.7044 33.6061C24.6488 33.6061 24.6001 33.5856 24.5584 33.5447L23.3626 32.3713C23.2792 32.2895 23.2792 32.1667 23.3626 32.0848C23.446 32.003 23.5712 32.003 23.6546 32.0848L24.8504 33.2582C24.9338 33.34 24.9338 33.4628 24.8504 33.5447C24.8087 33.5924 24.76 33.6061 24.7044 33.6061Z" fill="white"/>
<path d="M26.9501 40.8168C26.9223 40.8168 26.8945 40.81 26.8666 40.7963C26.7624 40.7486 26.7137 40.6326 26.7624 40.5303L27.3602 39.2069C27.4089 39.1045 27.5271 39.0568 27.6314 39.1045C27.7357 39.1523 27.7843 39.2683 27.7357 39.3706L27.1378 40.694C27.11 40.7691 27.0335 40.8168 26.9501 40.8168Z" fill="white"/>
<path d="M56.9829 50.2782C56.9551 50.2782 56.9273 50.2714 56.9065 50.2645C56.8578 50.2441 56.8161 50.2031 56.7952 50.1554L53.2079 41.8738C53.1662 41.7714 53.2149 41.6555 53.3192 41.6077C55.7941 40.5708 56.9551 37.7602 55.9054 35.3317C54.8556 32.9031 51.9774 31.7639 49.5024 32.794C49.3982 32.8349 49.28 32.7872 49.2313 32.6848L40.562 12.6629C40.5203 12.5606 40.569 12.4446 40.6732 12.3969L44.0798 10.9779C44.1841 10.937 44.3023 10.9848 44.3509 11.0871C44.3926 11.1894 44.344 11.3054 44.2397 11.3531L41.0209 12.697L49.5303 32.3506C52.1721 31.3682 55.1615 32.603 56.2808 35.1816C57.3931 37.7534 56.2182 40.7209 53.6668 41.9079L57.0942 49.8211L57.3097 49.7324L70.3449 44.2955C70.4492 44.2546 70.5674 44.3023 70.6161 44.4046C71.6658 46.8332 74.5371 47.9724 77.012 46.9423C78.7014 46.2397 79.8415 44.6843 79.9736 42.8834C80.0292 42.1125 79.8971 41.3621 79.5912 40.6595C79.5704 40.6117 79.5704 40.5572 79.5912 40.5026C79.6121 40.4548 79.6538 40.4139 79.7025 40.3934L86.4182 37.5897L86.0706 36.7915L70.3449 0.472409L48.8559 9.4294C48.7516 9.47033 48.6334 9.42258 48.5848 9.32025C48.5431 9.21793 48.5917 9.10195 48.696 9.0542L70.3727 0.015349C70.4214 -0.00511633 70.477 -0.00511633 70.5326 0.015349C70.5813 0.0358143 70.623 0.0767454 70.6439 0.124498L86.8771 37.617C86.9188 37.7193 86.8701 37.8353 86.7658 37.883L80.0431 40.6868C80.3212 41.3962 80.4325 42.1398 80.3768 42.9107C80.2308 44.8617 79.0003 46.5467 77.165 47.3107C74.544 48.4022 71.5198 47.2493 70.3102 44.7457L57.0594 50.2782C57.0386 50.2714 57.0107 50.2782 56.9829 50.2782Z" fill="#222222"/>
<path d="M79.7787 40.5643C80.8772 43.102 79.6745 46.0353 77.0883 47.1132C74.5021 48.191 71.5196 47.0108 70.4212 44.4663L57.386 49.9033C57.3442 49.7532 57.3234 49.6031 57.3234 49.4326C57.1983 42.1128 60.8551 40.7894 74.9192 38.279C79.9595 37.3853 83.6163 36.8668 86.2651 36.7031L86.6892 37.6855L79.7787 40.5643Z" fill="#222222"/>
<path d="M75.3848 45.6732L64.018 26.8246C58.512 28.1617 55.606 22.3086 55.606 22.3086L53.3187 21.9129C53.3187 21.9129 52.7487 18.3588 54.8691 12.915C56.9894 7.47123 66.9588 4.50376 70.3723 12.0214C71.9087 15.4254 72.1173 18.1337 71.3108 20.2962L81.9963 37.4256L75.3848 45.6732Z" fill="white"/>
<path d="M75.3846 45.8783C75.3777 45.8783 75.3777 45.8783 75.3707 45.8783C75.3012 45.8715 75.2386 45.8374 75.2039 45.776L63.9206 27.0502C58.8038 28.1826 55.8839 23.2368 55.4738 22.4864L53.2908 22.1112C53.2004 22.0976 53.1378 22.0294 53.1239 21.9407C53.1031 21.7906 52.5678 18.2706 54.6882 12.8405C55.877 9.7843 59.5686 7.4035 63.274 7.30117C66.5415 7.21249 69.1973 8.90429 70.5738 11.9332C72.0407 15.1803 72.3674 17.9841 71.5471 20.2694L82.1838 37.317C82.2255 37.392 82.2255 37.4807 82.1699 37.5489L75.5515 45.7896C75.5028 45.851 75.4472 45.8783 75.3846 45.8783ZM64.0179 26.6204C64.0874 26.6204 64.157 26.6545 64.1987 26.7228L75.4055 45.3189L81.7458 37.4193L71.1369 20.4058C71.1021 20.3512 71.0952 20.2898 71.116 20.2284C71.9364 18.025 71.6235 15.2895 70.1845 12.1037C68.3978 8.16754 65.0885 7.6559 63.274 7.71048C59.7285 7.80598 56.1968 10.0776 55.0636 12.9905C53.2213 17.718 53.4298 21.0334 53.5063 21.7429L55.6406 22.1112C55.7032 22.1249 55.7588 22.1658 55.7936 22.2204C55.8214 22.275 58.6926 27.9097 63.9693 26.6273C63.9832 26.6273 64.004 26.6204 64.0179 26.6204Z" fill="#222222"/>
<path d="M70.3731 12.0286C70.2132 11.6807 70.0534 11.2646 69.8726 10.8212C69.4833 10.3232 69.094 9.83202 68.6977 9.34085C68.2041 9.02705 67.641 8.65867 67.3768 8.53588C65.4789 7.89463 66.0698 7.88781 64.2483 7.47168C63.7895 7.49215 61.3701 7.64904 60.9113 7.73091C60.6332 7.8537 60.3551 7.97649 60.084 8.09928C58.1096 8.1675 55.4191 8.24254 53.7089 9.31356C52.096 10.3232 53.987 14.6209 54.3068 14.1843C54.6057 13.7682 54.7865 13.0314 55.1271 12.6631C55.1063 12.7244 55.0785 12.7858 55.0576 12.8472C56.6497 13.8773 59.0203 14.4776 61.1338 14.7369C61.3562 15.1462 61.5857 15.5487 61.829 15.9443C62.2114 16.5651 62.844 17.2268 63.6574 16.9198C64.6446 16.5446 64.5751 15.7192 64.1649 14.8665C64.4638 14.846 64.7419 14.8187 64.9713 14.7778C67.0222 14.4231 67.5645 17.104 66.2505 18.1887C65.0756 19.1574 69.1426 20.7673 70.0603 20.7264C70.4566 20.7127 70.832 20.6377 71.2074 20.5422C72.139 18.3388 71.9791 15.5623 70.3731 12.0286Z" fill="#222222"/>
</svg>