<svg version="1.1" id="Слой_1" xmlns="http://www.w3.org/2000/svg" xmlns:xlink="http://www.w3.org/1999/xlink" x="0px" y="0px" viewBox="0 0 28.3 18.3" enable-background="new 0 0 28.3 18.3" xml:space="preserve" width="28.3"  height="18.3" >
                                            <path fill="#FFFFFF" d="M28.3,0.2c0,0.1-2.8,2.6-6.3,5.5c-4.2,3.6-6.7,5.3-7.4,5.3c-1.4,0-3.8-1.7-9.8-6.8L0,0l14.1,0
                                        	    C21.9,0,28.3,0.1,28.3,0.2z M5.6,6.4l3.6,3l-4.5,4.1l-4.5,4.1V9.9C0.3,1.1-0.3,1.4,5.6,6.4z M28.1,16.7c-0.2,0.2-8.3-7.2-8.3-7.5
                                        	    c0-0.1,1.9-1.8,4.1-3.7L28,2.2l0.2,7.2C28.2,13.3,28.2,16.6,28.1,16.7z M11.5,11.2c1.3,0.9,4,0.9,5.8-0.1l1.5-0.8l4.4,4l4.3,4h-13
                                        	    h-13l4.3-3.9c2.4-2.1,4.4-3.9,4.5-3.9S11,10.8,11.5,11.2z"></path>
                                        </svg>