<svg version="1.1" id="Слой_1" xmlns="http://www.w3.org/2000/svg" xmlns:xlink="http://www.w3.org/1999/xlink" x="0px" y="0px" viewBox="0 0 50 50" enable-background="new 0 0 50 50" xml:space="preserve" width="50"  height="50" >                                     <path fill="#0077FF" d="M48.9,12.1c0.3-1.2,0-2-1.7-2h-5.5c-1.4,0-2,0.7-2.4,1.5c0,0-2.8,6.8-6.7,11.2c-1.3,1.3-1.9,1.7-2.5,1.7                                     	c-0.3,0-0.9-0.4-0.9-1.6V12.1c0-1.4-0.4-2-1.6-2h-8.6c-0.9,0-1.4,0.6-1.4,1.3c0,1.3,2,1.6,2.2,5.3v8.1c0,1.8-0.3,2.1-1,2.1                                     	c-1.9,0-6.4-6.8-9-14.6c-0.5-1.5-1-2.1-2.4-2.1H1.9c-1.6,0-1.9,0.7-1.9,1.5c0,1.5,1.9,8.6,8.6,18.1c4.5,6.5,10.9,10,16.7,10                                     	c3.5,0,3.9-0.8,3.9-2.1v-4.9c0-1.6,0.3-1.9,1.4-1.9c0.8,0,2.2,0.4,5.4,3.5c3.7,3.7,4.3,5.4,6.4,5.4H48c1.6,0,2.3-0.8,1.9-2.3                                     	c-0.5-1.5-2.3-3.8-4.6-6.4c-1.3-1.5-3.2-3.1-3.8-3.9c-0.8-1-0.6-1.5,0-2.4C41.5,24.7,48.2,15.3,48.9,12.1z"></path></svg>