<svg xmlns="http://www.w3.org/2000/svg" xmlns:xlink="http://www.w3.org/1999/xlink" version="1.1" x="0px" y="0px" viewBox="0 0 100 125" style="enable-background:new 0 0 100 100;" xml:space="preserve"><path d="M15.11,57.61c4.19,0,7.61-3.41,7.61-7.61c0-4.19-3.41-7.61-7.61-7.61c-4.19,0-7.61,3.41-7.61,7.61  C7.5,54.19,10.91,57.61,15.11,57.61z M15.11,43.37c3.66,0,6.63,2.97,6.63,6.63c0,3.66-2.97,6.63-6.63,6.63S8.47,53.66,8.47,50  C8.47,46.34,11.45,43.37,15.11,43.37z"/><path d="M13.25,53.42c0.08,0.04,0.16,0.07,0.24,0.07s0.17-0.02,0.24-0.07l5.19-2.99c0.15-0.09,0.24-0.25,0.24-0.42  c0-0.17-0.09-0.34-0.24-0.42l-5.19-2.99c-0.15-0.09-0.34-0.09-0.49,0C13.1,46.67,13,46.83,13,47.01v5.99  C13,53.17,13.1,53.33,13.25,53.42z"/><path d="M92.01,49.51h-0.9V49.3c0-0.27-0.22-0.49-0.49-0.49s-0.49,0.22-0.49,0.49v0.21h-0.87V49.3c0-0.27-0.22-0.49-0.49-0.49  s-0.49,0.22-0.49,0.49v0.21h-0.87V49.3c0-0.27-0.22-0.49-0.49-0.49c-0.27,0-0.49,0.22-0.49,0.49v0.21h-0.87v-1.23  c0-0.27-0.22-0.49-0.49-0.49s-0.49,0.22-0.49,0.49v1.23h-0.87V47.6c0-0.27-0.22-0.49-0.49-0.49s-0.49,0.22-0.49,0.49v1.92h-0.87  v-1.39c0-0.27-0.22-0.49-0.49-0.49s-0.49,0.22-0.49,0.49v1.39h-0.87v-4.18c0-0.27-0.22-0.49-0.49-0.49s-0.49,0.22-0.49,0.49v4.18  h-0.87v-2.67c0-0.27-0.22-0.49-0.49-0.49s-0.49,0.22-0.49,0.49v2.67h-0.87v-4.18c0-0.27-0.22-0.49-0.49-0.49s-0.49,0.22-0.49,0.49  v4.18h-0.87v-0.7c0-0.27-0.22-0.49-0.49-0.49s-0.49,0.22-0.49,0.49v0.7h-0.87V47c0-0.27-0.22-0.49-0.49-0.49s-0.49,0.22-0.49,0.49  v2.52H70.8v-4.44c0-0.27-0.22-0.49-0.49-0.49s-0.49,0.22-0.49,0.49v4.44h-0.87V47c0-0.27-0.22-0.49-0.49-0.49s-0.49,0.22-0.49,0.49  v2.52h-0.87V49.3c0-0.27-0.22-0.49-0.49-0.49s-0.49,0.22-0.49,0.49v0.21h-0.87v-4.44c0-0.27-0.22-0.49-0.49-0.49  s-0.49,0.22-0.49,0.49v4.44h-0.87v-2.08c0-0.27-0.22-0.49-0.49-0.49s-0.49,0.22-0.49,0.49v2.08h-0.87V49.3  c0-0.27-0.22-0.49-0.49-0.49s-0.49,0.22-0.49,0.49v0.21h-0.87v-1.39c0-0.27-0.22-0.49-0.49-0.49s-0.49,0.22-0.49,0.49v1.39h-0.87  v-3.56c0-0.27-0.22-0.49-0.49-0.49s-0.49,0.22-0.49,0.49v3.56h-0.87V47.2c0-0.27-0.22-0.49-0.49-0.49s-0.49,0.22-0.49,0.49v2.31  h-0.87V49.3c0-0.27-0.22-0.49-0.49-0.49s-0.49,0.22-0.49,0.49v0.21h-0.87v-3.23c0-0.27-0.22-0.49-0.49-0.49s-0.49,0.22-0.49,0.49  v3.23h-0.87v-1.69c0-0.27-0.22-0.49-0.49-0.49s-0.49,0.22-0.49,0.49v1.69h-0.87v-3.78c0-0.27-0.22-0.49-0.49-0.49  s-0.49,0.22-0.49,0.49v3.78h-0.87v-2.51c0-0.27-0.22-0.49-0.49-0.49s-0.49,0.22-0.49,0.49v2.51h-0.87v-4.24  c0-0.27-0.22-0.49-0.49-0.49s-0.49,0.22-0.49,0.49v4.24H43.1v-3.23c0-0.27-0.22-0.49-0.49-0.49s-0.49,0.22-0.49,0.49v3.23h-0.87  V49.3c0-0.27-0.22-0.49-0.49-0.49s-0.49,0.22-0.49,0.49v0.21H39.4v-2.51c0-0.27-0.22-0.49-0.49-0.49c-0.27,0-0.49,0.22-0.49,0.49  v2.51h-0.87v-4.24c0-0.27-0.22-0.49-0.49-0.49s-0.49,0.22-0.49,0.49v4.24h-0.87v-3.46c0-0.27-0.22-0.49-0.49-0.49  s-0.49,0.22-0.49,0.49v3.46h-0.87v-1.39c0-0.27-0.22-0.49-0.49-0.49c-0.27,0-0.49,0.22-0.49,0.49v1.39h-0.87v-1.39  c0-0.27-0.22-0.49-0.49-0.49c-0.27,0-0.49,0.22-0.49,0.49v1.39h-0.87v-1.85c0-0.27-0.22-0.49-0.49-0.49s-0.49,0.22-0.49,0.49v1.85  h-0.87V49.3c0-0.27-0.22-0.49-0.49-0.49s-0.49,0.22-0.49,0.49v0.21h-0.87V49.3c0-0.27-0.22-0.49-0.49-0.49  c-0.27,0-0.49,0.22-0.49,0.49v0.21h-0.9c-0.27,0-0.49,0.22-0.49,0.49s0.22,0.49,0.49,0.49h0.9v0.21c0,0.27,0.22,0.49,0.49,0.49  c0.27,0,0.49-0.22,0.49-0.49v-0.21h0.87v0.21c0,0.27,0.22,0.49,0.49,0.49s0.49-0.22,0.49-0.49v-0.21h0.87v1.85  c0,0.27,0.22,0.49,0.49,0.49s0.49-0.22,0.49-0.49v-1.85h0.87v1.39c0,0.27,0.22,0.49,0.49,0.49c0.27,0,0.49-0.22,0.49-0.49v-1.39  h0.87v1.39c0,0.27,0.22,0.49,0.49,0.49c0.27,0,0.49-0.22,0.49-0.49v-1.39h0.87v3.46c0,0.27,0.22,0.49,0.49,0.49s0.49-0.22,0.49-0.49  v-3.46h0.87v4.24c0,0.27,0.22,0.49,0.49,0.49s0.49-0.22,0.49-0.49v-4.24h0.87v2.51c0,0.27,0.22,0.49,0.49,0.49  c0.27,0,0.49-0.22,0.49-0.49v-2.51h0.87v0.21c0,0.27,0.22,0.49,0.49,0.49s0.49-0.22,0.49-0.49v-0.21h0.87v3.23  c0,0.27,0.22,0.49,0.49,0.49s0.49-0.22,0.49-0.49v-3.23h0.87v4.24c0,0.27,0.22,0.49,0.49,0.49s0.49-0.22,0.49-0.49v-4.24h0.87v2.51  c0,0.27,0.22,0.49,0.49,0.49s0.49-0.22,0.49-0.49v-2.51h0.87v3.78c0,0.27,0.22,0.49,0.49,0.49s0.49-0.22,0.49-0.49v-3.78h0.87v1.69  c0,0.27,0.22,0.49,0.49,0.49s0.49-0.22,0.49-0.49v-1.69h0.87v3.23c0,0.27,0.22,0.49,0.49,0.49s0.49-0.22,0.49-0.49v-3.23h0.87v0.21  c0,0.27,0.22,0.49,0.49,0.49s0.49-0.22,0.49-0.49v-0.21h0.87v2.31c0,0.27,0.22,0.49,0.49,0.49s0.49-0.22,0.49-0.49v-2.31h0.87v3.56  c0,0.27,0.22,0.49,0.49,0.49s0.49-0.22,0.49-0.49v-3.56h0.87v1.39c0,0.27,0.22,0.49,0.49,0.49s0.49-0.22,0.49-0.49v-1.39h0.87v0.21  c0,0.27,0.22,0.49,0.49,0.49s0.49-0.22,0.49-0.49v-0.21h0.87v2.08c0,0.27,0.22,0.49,0.49,0.49s0.49-0.22,0.49-0.49v-2.08h0.87v4.44  c0,0.27,0.22,0.49,0.49,0.49s0.49-0.22,0.49-0.49v-4.44h0.87v0.21c0,0.27,0.22,0.49,0.49,0.49s0.49-0.22,0.49-0.49v-0.21h0.87V53  c0,0.27,0.22,0.49,0.49,0.49s0.49-0.22,0.49-0.49v-2.52h0.87v4.44c0,0.27,0.22,0.49,0.49,0.49s0.49-0.22,0.49-0.49v-4.44h0.87V53  c0,0.27,0.22,0.49,0.49,0.49s0.49-0.22,0.49-0.49v-2.52h0.87v0.7c0,0.27,0.22,0.49,0.49,0.49s0.49-0.22,0.49-0.49v-0.7h0.87v4.18  c0,0.27,0.22,0.49,0.49,0.49s0.49-0.22,0.49-0.49v-4.18h0.87v2.67c0,0.27,0.22,0.49,0.49,0.49s0.49-0.22,0.49-0.49v-2.67h0.87v4.18  c0,0.27,0.22,0.49,0.49,0.49s0.49-0.22,0.49-0.49v-4.18h0.87v1.39c0,0.27,0.22,0.49,0.49,0.49s0.49-0.22,0.49-0.49v-1.39h0.87v1.92  c0,0.27,0.22,0.49,0.49,0.49s0.49-0.22,0.49-0.49v-1.92h0.87v1.23c0,0.27,0.22,0.49,0.49,0.49s0.49-0.22,0.49-0.49v-1.23h0.87v0.21  c0,0.27,0.22,0.49,0.49,0.49c0.27,0,0.49-0.22,0.49-0.49v-0.21h0.87v0.21c0,0.27,0.22,0.49,0.49,0.49s0.49-0.22,0.49-0.49v-0.21  h0.87v0.21c0,0.27,0.22,0.49,0.49,0.49s0.49-0.22,0.49-0.49v-0.21h0.9c0.27,0,0.49-0.22,0.49-0.49S92.28,49.51,92.01,49.51z"/></svg>